<svg width="209" height="70" viewBox="0 0 209 70" fill="none" xmlns="http://www.w3.org/2000/svg">
<path d="M60 0H10C4.47715 0 0 4.47715 0 10V60C0 65.5229 4.47715 70 10 70H60C65.5229 70 70 65.5229 70 60V10C70 4.47715 65.5229 0 60 0Z" fill="#F3FCF7"/>
<path d="M50.438 39.875H49.626V34.386C49.6247 33.7401 49.3672 33.1212 48.91 32.665L43.836 27.591C43.3798 27.1338 42.7609 26.8763 42.115 26.875H39.875V24.438C39.875 23.7916 39.6183 23.1716 39.1613 22.7144C38.7043 22.2572 38.0844 22.0003 37.438 22H21.188C20.5414 22 19.9213 22.2569 19.4641 22.7141C19.0069 23.1713 18.75 23.7914 18.75 24.438V40.688C18.75 41.3346 19.0069 41.9547 19.4641 42.4119C19.9213 42.8691 20.5414 43.126 21.188 43.126H22C22 44.4189 22.5136 45.6589 23.4279 46.5731C24.3421 47.4874 25.5821 48.001 26.875 48.001C28.1679 48.001 29.4079 47.4874 30.3221 46.5731C31.2364 45.6589 31.75 44.4189 31.75 43.126H38.25C38.25 44.4189 38.7636 45.6589 39.6779 46.5731C40.5921 47.4874 41.8321 48.001 43.125 48.001C44.4179 48.001 45.6579 47.4874 46.5721 46.5731C47.4864 45.6589 48 44.4189 48 43.126H50.438C50.6533 43.1255 50.8596 43.0398 51.0119 42.8876C51.1643 42.7355 51.2502 42.5293 51.251 42.314V40.688C51.2505 40.4725 51.1646 40.2661 51.0123 40.1137C50.8599 39.9614 50.6535 39.8755 50.438 39.875ZM26.875 45.563C26.3928 45.563 25.9214 45.42 25.5204 45.1521C25.1195 44.8841 24.807 44.5033 24.6225 44.0578C24.438 43.6122 24.3898 43.122 24.4839 42.649C24.5781 42.176 24.8104 41.7416 25.1514 41.4007C25.4925 41.0598 25.927 40.8277 26.4 40.7337C26.873 40.6398 27.3632 40.6882 27.8087 40.8729C28.2541 41.0575 28.6348 41.3702 28.9026 41.7712C29.1704 42.1723 29.3132 42.6438 29.313 43.126C29.3127 43.7724 29.0558 44.3923 28.5986 44.8493C28.1414 45.3063 27.5214 45.563 26.875 45.563ZM43.125 45.563C42.6428 45.563 42.1714 45.42 41.7704 45.1521C41.3695 44.8841 41.057 44.5033 40.8725 44.0578C40.688 43.6122 40.6398 43.122 40.7339 42.649C40.8281 42.176 41.0604 41.7416 41.4014 41.4007C41.7425 41.0598 42.177 40.8277 42.65 40.7337C43.123 40.6398 43.6132 40.6882 44.0587 40.8729C44.5041 41.0575 44.8848 41.3702 45.1526 41.7712C45.4204 42.1723 45.5632 42.6438 45.563 43.126C45.5627 43.7724 45.3058 44.3923 44.8486 44.8493C44.3914 45.3063 43.7714 45.563 43.125 45.563ZM47.188 35H39.875V29.313H42.114L47.187 34.386L47.188 35Z" fill="#06C167"/>
<path d="M93.5852 31H95.1705V25.1449H100.847V23.7386H95.1705V19.3153H101.435V17.9091H93.5852V31ZM103.84 31H105.348V24.7869C105.348 23.4574 106.396 22.4858 107.828 22.4858C108.231 22.4858 108.646 22.5625 108.749 22.5881V21.054C108.576 21.0412 108.18 21.0284 107.956 21.0284C106.78 21.0284 105.757 21.6932 105.399 22.6648H105.297V21.1818H103.84V31ZM114.355 31.2045C116.349 31.2045 117.806 30.2074 118.267 28.7244L116.809 28.3153C116.426 29.3381 115.537 29.8494 114.355 29.8494C112.584 29.8494 111.363 28.7053 111.293 26.6023H118.42V25.9631C118.42 22.3068 116.247 21.054 114.201 21.054C111.542 21.054 109.778 23.1506 109.778 26.1676C109.778 29.1847 111.517 31.2045 114.355 31.2045ZM111.293 25.2983C111.395 23.7706 112.475 22.4091 114.201 22.4091C115.838 22.4091 116.886 23.6364 116.886 25.2983H111.293ZM124.831 31.2045C126.825 31.2045 128.283 30.2074 128.743 28.7244L127.286 28.3153C126.902 29.3381 126.014 29.8494 124.831 29.8494C123.061 29.8494 121.84 28.7053 121.769 26.6023H128.896V25.9631C128.896 22.3068 126.723 21.054 124.678 21.054C122.019 21.054 120.254 23.1506 120.254 26.1676C120.254 29.1847 121.993 31.2045 124.831 31.2045ZM121.769 25.2983C121.872 23.7706 122.952 22.4091 124.678 22.4091C126.314 22.4091 127.362 23.6364 127.362 25.2983H121.769ZM143.617 21.1818H145.151C145.081 19.2067 143.259 17.7301 140.728 17.7301C138.222 17.7301 136.254 19.1875 136.254 21.3864C136.254 23.1506 137.532 24.1989 139.578 24.7869L141.188 25.2472C142.569 25.6307 143.796 26.1165 143.796 27.4205C143.796 28.8523 142.416 29.7983 140.6 29.7983C139.041 29.7983 137.66 29.108 137.532 27.625H135.896C136.049 29.7727 137.788 31.2301 140.6 31.2301C143.617 31.2301 145.33 29.5682 145.33 27.446C145.33 24.9915 143.004 24.1989 141.649 23.8409L140.319 23.483C139.347 23.2273 137.788 22.7159 137.788 21.3097C137.788 20.0568 138.938 19.1364 140.677 19.1364C142.262 19.1364 143.464 19.8906 143.617 21.1818ZM149.241 25.0938C149.241 23.3807 150.334 22.4091 151.823 22.4091C153.242 22.4091 154.099 23.304 154.099 24.8636V31H155.607V24.7614C155.607 22.2365 154.265 21.054 152.258 21.054C150.711 21.054 149.829 21.6996 149.369 22.7159H149.241V17.9091H147.732V31H149.241V25.0938ZM158.367 31H159.876V21.1818H158.367V31ZM159.134 19.5455C159.722 19.5455 160.208 19.0852 160.208 18.5227C160.208 17.9602 159.722 17.5 159.134 17.5C158.546 17.5 158.06 17.9602 158.06 18.5227C158.06 19.0852 158.546 19.5455 159.134 19.5455ZM162.638 34.6818H164.147V29.4915H164.275C164.607 30.0284 165.246 31.2045 167.138 31.2045C169.593 31.2045 171.306 29.2358 171.306 26.1165C171.306 23.0227 169.593 21.054 167.113 21.054C165.195 21.054 164.607 22.2301 164.275 22.7415H164.096V21.1818H162.638V34.6818ZM164.121 26.0909C164.121 23.892 165.093 22.4091 166.934 22.4091C168.852 22.4091 169.798 24.0199 169.798 26.0909C169.798 28.1875 168.826 29.8494 166.934 29.8494C165.119 29.8494 164.121 28.3153 164.121 26.0909ZM173.607 34.6818H175.116V29.4915H175.244C175.576 30.0284 176.215 31.2045 178.107 31.2045C180.562 31.2045 182.275 29.2358 182.275 26.1165C182.275 23.0227 180.562 21.054 178.082 21.054C176.164 21.054 175.576 22.2301 175.244 22.7415H175.065V21.1818H173.607V34.6818ZM175.09 26.0909C175.09 23.892 176.062 22.4091 177.903 22.4091C179.82 22.4091 180.766 24.0199 180.766 26.0909C180.766 28.1875 179.795 29.8494 177.903 29.8494C176.087 29.8494 175.09 28.3153 175.09 26.0909ZM184.576 31H186.085V21.1818H184.576V31ZM185.343 19.5455C185.931 19.5455 186.417 19.0852 186.417 18.5227C186.417 17.9602 185.931 17.5 185.343 17.5C184.755 17.5 184.269 17.9602 184.269 18.5227C184.269 19.0852 184.755 19.5455 185.343 19.5455ZM190.356 25.0938C190.356 23.3807 191.417 22.4091 192.862 22.4091C194.262 22.4091 195.112 23.3232 195.112 24.8636V31H196.62V24.7614C196.62 22.2557 195.284 21.054 193.296 21.054C191.813 21.054 190.893 21.7188 190.433 22.7159H190.305V21.1818H188.847V31H190.356V25.0938ZM203.34 34.8864C205.692 34.8864 207.584 33.8125 207.584 31.2812V21.1818H206.127V22.7415H205.973C205.641 22.2301 205.027 21.054 203.11 21.054C200.63 21.054 198.917 23.0227 198.917 26.0398C198.917 29.108 200.706 30.8466 203.084 30.8466C205.002 30.8466 205.615 29.7216 205.948 29.1847H206.076V31.179C206.076 32.8153 204.925 33.5568 203.34 33.5568C201.556 33.5568 200.93 32.6172 200.527 32.0739L199.326 32.9176C199.939 33.9467 201.147 34.8864 203.34 34.8864ZM203.289 29.4915C201.397 29.4915 200.425 28.0597 200.425 26.0142C200.425 24.0199 201.371 22.4091 203.289 22.4091C205.13 22.4091 206.101 23.892 206.101 26.0142C206.101 28.1875 205.104 29.4915 203.289 29.4915Z" fill="#1D1D1F"/>
<path opacity="0.75" d="M101.963 50.9091C101.963 47.6527 100.014 45.679 97.3793 45.679C94.7344 45.679 92.7905 47.6527 92.7905 50.9091C92.7905 54.1605 94.7344 56.1392 97.3793 56.1392C100.014 56.1392 101.963 54.1655 101.963 50.9091ZM100.442 50.9091C100.442 53.3899 99.1293 54.7372 97.3793 54.7372C95.6243 54.7372 94.3168 53.3899 94.3168 50.9091C94.3168 48.4283 95.6243 47.081 97.3793 47.081C99.1293 47.081 100.442 48.4283 100.442 50.9091ZM103.759 56H105.246V51.3366C105.246 50.3374 106.016 49.6165 107.07 49.6165C107.378 49.6165 107.726 49.6712 107.846 49.706V48.2841C107.697 48.2642 107.403 48.2493 107.214 48.2493C106.319 48.2493 105.554 48.7564 105.275 49.5767H105.196V48.3636H103.759V56ZM111.717 56.1491C113.109 56.1491 113.656 55.299 113.925 54.8118H114.049V56H115.501V45.8182H114.014V49.6016H113.925C113.656 49.1293 113.149 48.2642 111.727 48.2642C109.883 48.2642 108.526 49.7209 108.526 52.1967C108.526 54.6676 109.863 56.1491 111.717 56.1491ZM112.045 54.8814C110.718 54.8814 110.027 53.7131 110.027 52.1818C110.027 50.6655 110.703 49.527 112.045 49.527C113.343 49.527 114.039 50.5859 114.039 52.1818C114.039 53.7876 113.328 54.8814 112.045 54.8814ZM120.914 56.1541C122.579 56.1541 123.757 55.3338 124.095 54.0909L122.688 53.8374C122.42 54.5582 121.774 54.9261 120.928 54.9261C119.656 54.9261 118.801 54.1009 118.761 52.6293H124.19V52.1023C124.19 49.343 122.539 48.2642 120.809 48.2642C118.681 48.2642 117.279 49.8849 117.279 52.2315C117.279 54.603 118.661 56.1541 120.914 56.1541ZM118.766 51.5156C118.825 50.4318 119.611 49.4922 120.819 49.4922C121.972 49.4922 122.728 50.3473 122.733 51.5156H118.766ZM125.839 56H127.326V51.3366C127.326 50.3374 128.096 49.6165 129.15 49.6165C129.458 49.6165 129.806 49.6712 129.926 49.706V48.2841C129.777 48.2642 129.483 48.2493 129.294 48.2493C128.4 48.2493 127.634 48.7564 127.355 49.5767H127.276V48.3636H125.839V56ZM136.934 50.228C136.626 49.0398 135.697 48.2642 134.046 48.2642C132.321 48.2642 131.098 49.174 131.098 50.5263C131.098 51.6101 131.754 52.331 133.186 52.6491L134.479 52.9325C135.214 53.0966 135.557 53.4247 135.557 53.902C135.557 54.4936 134.926 54.956 133.952 54.956C133.062 54.956 132.49 54.5732 132.311 53.8224L130.874 54.0412C131.123 55.3935 132.246 56.1541 133.961 56.1541C135.806 56.1541 137.084 55.1747 137.084 53.7926C137.084 52.7138 136.398 52.0476 134.996 51.7244L133.782 51.446C132.942 51.2472 132.579 50.9638 132.584 50.4467C132.579 49.8601 133.216 49.4425 134.061 49.4425C134.986 49.4425 135.413 49.9545 135.587 50.4666L136.934 50.228ZM145.64 56.1541C147.792 56.1541 149.199 54.5781 149.199 52.2166C149.199 49.8402 147.792 48.2642 145.64 48.2642C143.487 48.2642 142.08 49.8402 142.08 52.2166C142.08 54.5781 143.487 56.1541 145.64 56.1541ZM145.645 54.9062C144.238 54.9062 143.581 53.6783 143.581 52.2116C143.581 50.75 144.238 49.5071 145.645 49.5071C147.042 49.5071 147.698 50.75 147.698 52.2116C147.698 53.6783 147.042 54.9062 145.645 54.9062ZM157.118 48.3636H155.522L153.593 54.2401H153.513L151.58 48.3636H149.984L152.758 56H154.349L157.118 48.3636ZM161.533 56.1541C163.198 56.1541 164.376 55.3338 164.714 54.0909L163.308 53.8374C163.039 54.5582 162.393 54.9261 161.548 54.9261C160.275 54.9261 159.42 54.1009 159.38 52.6293H164.809V52.1023C164.809 49.343 163.158 48.2642 161.428 48.2642C159.3 48.2642 157.898 49.8849 157.898 52.2315C157.898 54.603 159.281 56.1541 161.533 56.1541ZM159.385 51.5156C159.445 50.4318 160.23 49.4922 161.438 49.4922C162.592 49.4922 163.347 50.3473 163.352 51.5156H159.385ZM166.458 56H167.945V51.3366C167.945 50.3374 168.715 49.6165 169.769 49.6165C170.078 49.6165 170.426 49.6712 170.545 49.706V48.2841C170.396 48.2642 170.102 48.2493 169.914 48.2493C169.019 48.2493 168.253 48.7564 167.975 49.5767H167.895V48.3636H166.458V56ZM178.584 57.2727H179.519L179.524 56.1541C181.627 56 182.83 54.7969 182.83 53.1861C182.83 51.3516 181.194 50.6406 179.901 50.3224L179.539 50.228L179.548 47.0362C180.478 47.1605 181.115 47.6776 181.209 48.4929H182.691C182.651 46.9766 181.398 45.843 179.553 45.6939L179.558 44.5455H178.624L178.619 45.7038C176.834 45.8828 175.526 46.9964 175.526 48.6023C175.526 50.0192 176.541 50.8494 178.176 51.2919L178.604 51.4062L178.594 54.7919C177.624 54.6726 176.874 54.1456 176.794 53.1861H175.253C175.347 54.9013 176.585 56.005 178.589 56.1541L178.584 57.2727ZM179.529 54.7919L179.539 51.6648C180.548 51.9432 181.308 52.3111 181.308 53.1712C181.308 54.0412 180.583 54.6527 179.529 54.7919ZM178.609 49.9794C177.868 49.7607 177.053 49.3679 177.058 48.5128C177.058 47.767 177.649 47.1854 178.614 47.0412L178.609 49.9794ZM188.389 45.8182H186.893L184.352 47.4787V48.9503L186.788 47.3594H186.848V56H188.389V45.8182ZM190.93 54.0114H195.757V56H197.224V54.0114H198.571V52.7088H197.224V45.8182H195.33L190.93 52.7685V54.0114ZM195.767 52.7088H192.54V52.6293L195.688 47.6477H195.767V52.7088ZM203.848 56.169C206.2 56.169 207.577 54.25 207.577 50.9141C207.577 47.603 206.18 45.679 203.848 45.679C201.512 45.679 200.12 47.598 200.115 50.9141C200.115 54.245 201.492 56.1641 203.848 56.169ZM203.848 54.8416C202.471 54.8416 201.641 53.4595 201.641 50.9141C201.646 48.3786 202.476 46.9815 203.848 46.9815C205.216 46.9815 206.051 48.3786 206.051 50.9141C206.051 53.4595 205.221 54.8416 203.848 54.8416Z" fill="#1D1D1F"/>
</svg>
