<svg width="240" height="70" viewBox="0 0 240 70" fill="none" xmlns="http://www.w3.org/2000/svg">
<path d="M60 0H10C4.47715 0 0 4.47715 0 10V60C0 65.5229 4.47715 70 10 70H60C65.5229 70 70 65.5229 70 60V10C70 4.47715 65.5229 0 60 0Z" fill="#F3FCF7"/>
<path d="M45.42 28.875H26.063C25.8524 28.8676 25.653 28.7788 25.5066 28.6272C25.3603 28.4756 25.2785 28.2732 25.2785 28.0625C25.2785 27.8518 25.3603 27.6493 25.5066 27.4978C25.653 27.3462 25.8524 27.2574 26.063 27.25H45.563C45.6697 27.2501 45.7754 27.2292 45.874 27.1885C45.9727 27.1477 46.0623 27.0879 46.1378 27.0125C46.2133 26.9371 46.2732 26.8475 46.3141 26.7489C46.355 26.6504 46.376 26.5447 46.376 26.438C46.376 26.1179 46.313 25.801 46.1905 25.5054C46.068 25.2097 45.8885 24.9411 45.6622 24.7148C45.4359 24.4885 45.1673 24.309 44.8716 24.1865C44.5759 24.064 44.259 24.001 43.939 24.001H25.25C24.3882 24.001 23.5617 24.3432 22.9523 24.9525C22.3428 25.5618 22.0003 26.3882 22 27.25V43.5C22 44.3619 22.3424 45.1886 22.9519 45.7981C23.5614 46.4076 24.388 46.75 25.25 46.75H45.42C46.085 46.7677 46.7299 46.5212 47.2134 46.0645C47.697 45.6077 47.9799 44.9779 48 44.313V31.313C47.9801 30.6479 47.6974 30.0178 47.2138 29.5608C46.7302 29.1038 46.0851 28.8572 45.42 28.875ZM43.12 39.438C42.7986 39.438 42.4844 39.3427 42.2172 39.1641C41.95 38.9856 41.7417 38.7318 41.6187 38.4348C41.4957 38.1379 41.4635 37.8112 41.5262 37.496C41.5889 37.1807 41.7437 36.8912 41.971 36.6639C42.1982 36.4367 42.4878 36.2819 42.803 36.2192C43.1182 36.1565 43.4449 36.1887 43.7419 36.3117C44.0388 36.4347 44.2926 36.6429 44.4711 36.9102C44.6497 37.1774 44.745 37.4916 44.745 37.813C44.745 38.2431 44.5745 38.6557 44.2708 38.9603C43.9672 39.2649 43.5551 39.4367 43.125 39.438H43.12Z" fill="#06C167"/>
<path d="M104.631 24.4545C104.631 20.3125 102.202 17.7301 98.8523 17.7301C95.5028 17.7301 93.0739 20.3125 93.0739 24.4545C93.0739 28.5966 95.5028 31.179 98.8523 31.179C99.7088 31.179 100.501 31.0128 101.211 30.6932L102.355 32.2273H104.094L102.387 29.9581C103.781 28.8139 104.631 26.9091 104.631 24.4545ZM98.3409 26.9091L100.284 29.4531C99.8366 29.6129 99.3572 29.696 98.8523 29.696C96.4744 29.696 94.608 27.8551 94.608 24.4545C94.608 21.054 96.4744 19.2131 98.8523 19.2131C101.23 19.2131 103.097 21.054 103.097 24.4545C103.097 26.4297 102.47 27.8743 101.473 28.7436L100.08 26.9091H98.3409ZM113.279 26.9858C113.279 28.8267 111.873 29.6705 110.748 29.6705C109.495 29.6705 108.6 28.75 108.6 27.3182V21.1818H107.092V27.4205C107.092 29.9261 108.421 31.1278 110.262 31.1278C111.745 31.1278 112.717 30.3352 113.177 29.3381H113.279V31H114.788V21.1818H113.279V26.9858ZM117.551 31H119.059V21.1818H117.551V31ZM118.318 19.5455C118.906 19.5455 119.392 19.0852 119.392 18.5227C119.392 17.9602 118.906 17.5 118.318 17.5C117.73 17.5 117.244 17.9602 117.244 18.5227C117.244 19.0852 117.73 19.5455 118.318 19.5455ZM125.811 31.2045C127.984 31.2045 129.416 29.875 129.672 28.1364H128.163C127.882 29.2102 126.987 29.8494 125.811 29.8494C124.021 29.8494 122.87 28.3665 122.87 26.0909C122.87 23.8665 124.047 22.4091 125.811 22.4091C127.14 22.4091 127.933 23.2273 128.163 24.1222H129.672C129.416 22.2812 127.856 21.054 125.785 21.054C123.126 21.054 121.362 23.1506 121.362 26.142C121.362 29.0824 123.049 31.2045 125.811 31.2045ZM131.877 31H133.385V27.3246L134.44 26.3466L138.115 31H140.033L135.578 25.375L139.726 21.1818H137.86L133.564 25.554H133.385V17.9091H131.877V31ZM146.935 31H148.52V26.2188H151.384C154.433 26.2188 155.807 24.3651 155.807 22.0511C155.807 19.7372 154.433 17.9091 151.358 17.9091H146.935V31ZM148.52 24.8125V19.3153H151.307C153.436 19.3153 154.247 20.4787 154.247 22.0511C154.247 23.6236 153.436 24.8125 151.333 24.8125H148.52ZM161.045 31.2301C162.758 31.2301 163.653 30.3097 163.96 29.6705H164.037V31H165.545V24.5312C165.545 21.4119 163.167 21.054 161.915 21.054C160.432 21.054 158.744 21.5653 157.977 23.3551L159.409 23.8665C159.741 23.1506 160.528 22.3835 161.966 22.3835C163.353 22.3835 164.037 23.1186 164.037 24.3778V24.429C164.037 25.1577 163.295 25.0938 161.506 25.3239C159.684 25.5604 157.696 25.9631 157.696 28.2131C157.696 30.1307 159.179 31.2301 161.045 31.2301ZM161.275 29.875C160.074 29.875 159.204 29.3381 159.204 28.2898C159.204 27.1392 160.253 26.7812 161.429 26.6278C162.068 26.5511 163.781 26.3722 164.037 26.0653V27.446C164.037 28.6733 163.065 29.875 161.275 29.875ZM168.919 34.6818C170.28 34.6818 171.239 33.9595 171.808 32.4318L175.988 21.2074L174.339 21.1818L171.629 29.0057H171.527L168.816 21.1818H167.18L170.811 31.0511L170.529 31.8182C169.98 33.3139 169.302 33.4545 168.203 33.1733L167.819 34.5028C167.973 34.5795 168.407 34.6818 168.919 34.6818ZM177.984 31H179.493V24.8636C179.493 23.4254 180.541 22.4091 181.717 22.4091C182.861 22.4091 183.66 23.157 183.66 24.2756V31H185.194V24.608C185.194 23.3423 185.987 22.4091 187.368 22.4091C188.442 22.4091 189.362 22.978 189.362 24.429V31H190.871V24.429C190.871 22.1214 189.631 21.054 187.879 21.054C186.473 21.054 185.444 21.6996 184.939 22.7159H184.836C184.351 21.6676 183.494 21.054 182.203 21.054C180.925 21.054 179.979 21.6676 179.569 22.7159H179.442V21.1818H177.984V31ZM197.745 31.2045C199.74 31.2045 201.197 30.2074 201.657 28.7244L200.2 28.3153C199.816 29.3381 198.928 29.8494 197.745 29.8494C195.975 29.8494 194.754 28.7053 194.683 26.6023H201.811V25.9631C201.811 22.3068 199.637 21.054 197.592 21.054C194.933 21.054 193.169 23.1506 193.169 26.1676C193.169 29.1847 194.907 31.2045 197.745 31.2045ZM194.683 25.2983C194.786 23.7706 195.866 22.4091 197.592 22.4091C199.228 22.4091 200.276 23.6364 200.276 25.2983H194.683ZM205.614 25.0938C205.614 23.3807 206.675 22.4091 208.119 22.4091C209.519 22.4091 210.369 23.3232 210.369 24.8636V31H211.878V24.7614C211.878 22.2557 210.542 21.054 208.554 21.054C207.071 21.054 206.151 21.7188 205.691 22.7159H205.563V21.1818H204.105V31H205.614V25.0938ZM218.904 21.1818H216.808V18.8295H215.299V21.1818H213.816V22.4602H215.299V28.5966C215.299 30.3097 216.68 31.1278 217.958 31.1278C218.521 31.1278 218.879 31.0256 219.083 30.9489L218.777 29.5938C218.649 29.6193 218.444 29.6705 218.112 29.6705C217.447 29.6705 216.808 29.4659 216.808 28.1875V22.4602H218.904V21.1818Z" fill="#1D1D1F"/>
<path opacity="0.75" d="M96.8423 45.8182H95.3459L92.8054 47.4787V48.9503L95.2415 47.3594H95.3011V56H96.8423V45.8182ZM103.141 56.169C105.493 56.169 106.87 54.25 106.87 50.9141C106.87 47.603 105.473 45.679 103.141 45.679C100.805 45.679 99.4126 47.598 99.4077 50.9141C99.4077 54.245 100.785 56.1641 103.141 56.169ZM103.141 54.8416C101.764 54.8416 100.934 53.4595 100.934 50.9141C100.939 48.3786 101.769 46.9815 103.141 46.9815C104.509 46.9815 105.344 48.3786 105.344 50.9141C105.344 53.4595 104.513 54.8416 103.141 54.8416ZM112.178 56.169C114.53 56.169 115.907 54.25 115.907 50.9141C115.907 47.603 114.51 45.679 112.178 45.679C109.842 45.679 108.45 47.598 108.445 50.9141C108.445 54.245 109.822 56.1641 112.178 56.169ZM112.178 54.8416C110.801 54.8416 109.971 53.4595 109.971 50.9141C109.976 48.3786 110.806 46.9815 112.178 46.9815C113.546 46.9815 114.381 48.3786 114.381 50.9141C114.381 53.4595 113.551 54.8416 112.178 54.8416ZM122.985 54.0909C122.99 55.2393 123.711 56.2088 125.059 56.2088C126.391 56.2088 127.122 55.2393 127.122 54.0909V53.554C127.122 52.4006 126.411 51.4361 125.059 51.4361C123.731 51.4361 122.99 52.4055 122.985 53.554V54.0909ZM117.865 48.2642C117.865 49.4126 118.591 50.3821 119.938 50.3821C121.265 50.3821 122.001 49.4176 121.996 48.2642V47.7273C122.001 46.5739 121.285 45.6094 119.938 45.6094C118.615 45.6094 117.865 46.5739 117.865 47.7273V48.2642ZM118.282 56H119.471L126.471 45.8182H125.282L118.282 56ZM124.144 53.554C124.149 52.9822 124.397 52.4304 125.059 52.4304C125.745 52.4304 125.958 52.9822 125.958 53.554V54.0909C125.958 54.6626 125.725 55.2145 125.059 55.2145C124.382 55.2145 124.149 54.6577 124.144 54.0909V53.554ZM119.028 47.7273C119.028 47.1605 119.277 46.6037 119.938 46.6037C120.624 46.6037 120.838 47.1555 120.838 47.7273V48.2642C120.838 48.8359 120.604 49.3878 119.938 49.3878C119.262 49.3878 119.028 48.8359 119.028 48.2642V47.7273ZM138.712 50.228C138.404 49.0398 137.474 48.2642 135.823 48.2642C134.098 48.2642 132.875 49.174 132.875 50.5263C132.875 51.6101 133.531 52.331 134.963 52.6491L136.256 52.9325C136.992 53.0966 137.335 53.4247 137.335 53.902C137.335 54.4936 136.703 54.956 135.729 54.956C134.839 54.956 134.267 54.5732 134.088 53.8224L132.651 54.0412C132.9 55.3935 134.024 56.1541 135.739 56.1541C137.583 56.1541 138.861 55.1747 138.861 53.7926C138.861 52.7138 138.175 52.0476 136.773 51.7244L135.56 51.446C134.72 51.2472 134.357 50.9638 134.362 50.4467C134.357 49.8601 134.993 49.4425 135.838 49.4425C136.763 49.4425 137.191 49.9545 137.365 50.4666L138.712 50.228ZM143.787 56.1541C145.452 56.1541 146.63 55.3338 146.968 54.0909L145.561 53.8374C145.293 54.5582 144.647 54.9261 143.801 54.9261C142.529 54.9261 141.674 54.1009 141.634 52.6293H147.063V52.1023C147.063 49.343 145.412 48.2642 143.682 48.2642C141.554 48.2642 140.152 49.8849 140.152 52.2315C140.152 54.603 141.534 56.1541 143.787 56.1541ZM141.639 51.5156C141.699 50.4318 142.484 49.4922 143.692 49.4922C144.846 49.4922 145.601 50.3473 145.606 51.5156H141.639ZM151.929 56.1541C153.733 56.1541 154.902 55.0703 155.066 53.5838H153.619C153.43 54.4091 152.789 54.8963 151.939 54.8963C150.681 54.8963 149.871 53.8473 149.871 52.1818C149.871 50.5462 150.696 49.517 151.939 49.517C152.883 49.517 153.46 50.1136 153.619 50.8295H155.066C154.907 49.2884 153.649 48.2642 151.914 48.2642C149.761 48.2642 148.369 49.8849 148.369 52.2166C148.369 54.5185 149.711 56.1541 151.929 56.1541ZM161.493 52.8331C161.498 54.1307 160.533 54.7472 159.698 54.7472C158.778 54.7472 158.142 54.081 158.142 53.0419V48.3636H156.656V53.2209C156.656 55.1151 157.695 56.0994 159.161 56.0994C160.31 56.0994 161.09 55.4929 161.443 54.6776H161.523V56H162.984V48.3636H161.493V52.8331ZM164.982 56H166.468V51.3366C166.468 50.3374 167.239 49.6165 168.293 49.6165C168.601 49.6165 168.949 49.6712 169.068 49.706V48.2841C168.919 48.2642 168.626 48.2493 168.437 48.2493C167.542 48.2493 166.776 48.7564 166.498 49.5767H166.419V48.3636H164.982V56ZM173.373 56.1541C175.038 56.1541 176.216 55.3338 176.554 54.0909L175.147 53.8374C174.879 54.5582 174.233 54.9261 173.387 54.9261C172.115 54.9261 171.26 54.1009 171.22 52.6293H176.649V52.1023C176.649 49.343 174.998 48.2642 173.268 48.2642C171.14 48.2642 169.738 49.8849 169.738 52.2315C169.738 54.603 171.12 56.1541 173.373 56.1541ZM171.225 51.5156C171.284 50.4318 172.07 49.4922 173.278 49.4922C174.431 49.4922 175.187 50.3473 175.192 51.5156H171.225ZM182.003 58.8636H183.49V54.8118H183.579C183.848 55.299 184.395 56.1491 185.787 56.1491C187.636 56.1491 188.978 54.6676 188.978 52.1967C188.978 49.7209 187.616 48.2642 185.772 48.2642C184.355 48.2642 183.843 49.1293 183.579 49.6016H183.455V48.3636H182.003V58.8636ZM183.46 52.1818C183.46 50.5859 184.156 49.527 185.453 49.527C186.801 49.527 187.477 50.6655 187.477 52.1818C187.477 53.7131 186.781 54.8814 185.453 54.8814C184.176 54.8814 183.46 53.7876 183.46 52.1818ZM192.866 56.169C194.129 56.169 194.84 55.5277 195.123 54.956H195.183V56H196.635V50.929C196.635 48.7067 194.885 48.2642 193.672 48.2642C192.289 48.2642 191.017 48.821 190.52 50.2131L191.917 50.5312C192.135 49.9893 192.692 49.4673 193.691 49.4673C194.651 49.4673 195.143 49.9695 195.143 50.8345V50.8693C195.143 51.4112 194.586 51.4013 193.214 51.5604C191.767 51.7294 190.286 52.1072 190.286 53.8423C190.286 55.3438 191.414 56.169 192.866 56.169ZM193.189 54.9759C192.349 54.9759 191.743 54.598 191.743 53.8622C191.743 53.0668 192.449 52.7834 193.309 52.669C193.791 52.6044 194.934 52.4751 195.148 52.2614V53.2457C195.148 54.1506 194.427 54.9759 193.189 54.9759ZM199.281 58.8636C200.509 58.8636 201.284 58.2223 201.727 57.0192L204.884 48.3786L203.278 48.3636L201.344 54.2898H201.264L199.33 48.3636H197.74L200.534 56.0994L200.35 56.6065C199.972 57.6207 199.44 57.7053 198.624 57.4815L198.267 58.6996C198.445 58.7791 198.833 58.8636 199.281 58.8636ZM206.284 56H207.771V51.2919C207.771 50.2628 208.492 49.5469 209.337 49.5469C210.162 49.5469 210.734 50.0938 210.734 50.924V56H212.216V51.1328C212.216 50.2131 212.777 49.5469 213.747 49.5469C214.532 49.5469 215.179 49.9844 215.179 51.0185V56H216.665V50.8793C216.665 49.1342 215.691 48.2642 214.309 48.2642C213.21 48.2642 212.385 48.7912 212.017 49.6065H211.937C211.604 48.7713 210.903 48.2642 209.884 48.2642C208.875 48.2642 208.124 48.7663 207.806 49.6065H207.711V48.3636H206.284V56ZM221.949 56.1541C223.614 56.1541 224.792 55.3338 225.131 54.0909L223.724 53.8374C223.455 54.5582 222.809 54.9261 221.964 54.9261C220.691 54.9261 219.836 54.1009 219.796 52.6293H225.225V52.1023C225.225 49.343 223.574 48.2642 221.844 48.2642C219.716 48.2642 218.314 49.8849 218.314 52.2315C218.314 54.603 219.697 56.1541 221.949 56.1541ZM219.801 51.5156C219.861 50.4318 220.646 49.4922 221.854 49.4922C223.008 49.4922 223.763 50.3473 223.768 51.5156H219.801ZM228.361 51.4659C228.361 50.2479 229.107 49.5518 230.141 49.5518C231.15 49.5518 231.761 50.2131 231.761 51.3217V56H233.248V51.1428C233.248 49.2536 232.209 48.2642 230.648 48.2642C229.499 48.2642 228.749 48.7962 228.396 49.6065H228.301V48.3636H226.874V56H228.361V51.4659ZM238.806 48.3636H237.24V46.5341H235.754V48.3636H234.635V49.5568H235.754V54.0661C235.749 55.4531 236.808 56.1243 237.981 56.0994C238.453 56.0945 238.771 56.005 238.945 55.9403L238.677 54.7124C238.577 54.7322 238.393 54.777 238.155 54.777C237.673 54.777 237.24 54.6179 237.24 53.7578V49.5568H238.806V48.3636Z" fill="#1D1D1F"/>
</svg>
