<svg width="214" height="70" viewBox="0 0 214 70" fill="none" xmlns="http://www.w3.org/2000/svg">
<path d="M60 0H10C4.47715 0 0 4.47715 0 10V60C0 65.5229 4.47715 70 10 70H60C65.5229 70 70 65.5229 70 60V10C70 4.47715 65.5229 0 60 0Z" fill="#F3FCF7"/>
<path d="M30.548 30.55C31.002 30.0952 31.311 29.5161 31.436 28.8858C31.561 28.2556 31.4963 27.6024 31.2501 27.0088C31.004 26.4153 30.5874 25.908 30.0531 25.5511C29.5187 25.1943 28.8906 25.0038 28.248 25.0038C27.6055 25.0038 26.9773 25.1943 26.443 25.5511C25.9087 25.908 25.4921 26.4153 25.246 27.0088C24.9998 27.6024 24.9351 28.2556 25.0601 28.8858C25.1851 29.5161 25.4941 30.0952 25.948 30.55C26.2499 30.8523 26.6084 31.0922 27.0031 31.2559C27.3977 31.4195 27.8208 31.5038 28.248 31.5038C28.6753 31.5038 29.0984 31.4195 29.493 31.2559C29.8877 31.0922 30.2462 30.8523 30.548 30.55ZM43.548 38.95C43.0933 38.496 42.5142 38.187 41.8839 38.062C41.2536 37.9371 40.6004 38.0017 40.0069 38.2479C39.4133 38.494 38.9061 38.9106 38.5492 39.4449C38.1923 39.9793 38.0019 40.6074 38.0019 41.25C38.0019 41.8925 38.1923 42.5207 38.5492 43.055C38.9061 43.5894 39.4133 44.0059 40.0069 44.2521C40.6004 44.4982 41.2536 44.5629 41.8839 44.4379C42.5142 44.313 43.0933 44.004 43.548 43.55C43.8504 43.2481 44.0903 42.8896 44.2539 42.4949C44.4176 42.1003 44.5019 41.6772 44.5019 41.25C44.5019 40.8227 44.4176 40.3997 44.2539 40.005C44.0903 39.6104 43.8504 39.2518 43.548 38.95ZM43.448 27.198L42.3 26.05C42.1492 25.8987 41.9699 25.7786 41.7726 25.6967C41.5753 25.6148 41.3637 25.5727 41.15 25.5727C40.9364 25.5727 40.7248 25.6148 40.5275 25.6967C40.3301 25.7786 40.1509 25.8987 40 26.05L26.051 40.003C25.8997 40.1538 25.7797 40.3331 25.6978 40.5304C25.6159 40.7278 25.5737 40.9393 25.5737 41.153C25.5737 41.3666 25.6159 41.5782 25.6978 41.7755C25.7797 41.9729 25.8997 42.1521 26.051 42.303L27.2 43.45C27.3509 43.6013 27.5301 43.7213 27.7275 43.8032C27.9248 43.8851 28.1364 43.9273 28.35 43.9273C28.5637 43.9273 28.7753 43.8851 28.9726 43.8032C29.1699 43.7213 29.3492 43.6013 29.5 43.45L43.449 29.497C43.6003 29.3461 43.7204 29.1669 43.8023 28.9695C43.8842 28.7722 43.9264 28.5606 43.9264 28.347C43.9264 28.1333 43.8842 27.9218 43.8023 27.7244C43.7204 27.5271 43.6003 27.3478 43.449 27.197L43.448 27.198Z" fill="#06C167"/>
<path d="M100.744 21.1818H102.278C102.208 19.2067 100.386 17.7301 97.8551 17.7301C95.3494 17.7301 93.3807 19.1875 93.3807 21.3864C93.3807 23.1506 94.6591 24.1989 96.7045 24.7869L98.3153 25.2472C99.696 25.6307 100.923 26.1165 100.923 27.4205C100.923 28.8523 99.5426 29.7983 97.7273 29.7983C96.1676 29.7983 94.7869 29.108 94.6591 27.625H93.0227C93.1761 29.7727 94.9148 31.2301 97.7273 31.2301C100.744 31.2301 102.457 29.5682 102.457 27.446C102.457 24.9915 100.131 24.1989 98.7756 23.8409L97.446 23.483C96.4744 23.2273 94.9148 22.7159 94.9148 21.3097C94.9148 20.0568 96.0653 19.1364 97.804 19.1364C99.3892 19.1364 100.591 19.8906 100.744 21.1818ZM104.859 34.6818H106.368V29.4915H106.496C106.828 30.0284 107.467 31.2045 109.359 31.2045C111.814 31.2045 113.527 29.2358 113.527 26.1165C113.527 23.0227 111.814 21.054 109.334 21.054C107.416 21.054 106.828 22.2301 106.496 22.7415H106.317V21.1818H104.859V34.6818ZM106.342 26.0909C106.342 23.892 107.314 22.4091 109.155 22.4091C111.072 22.4091 112.018 24.0199 112.018 26.0909C112.018 28.1875 111.047 29.8494 109.155 29.8494C107.339 29.8494 106.342 28.3153 106.342 26.0909ZM119.944 31.2045C121.939 31.2045 123.396 30.2074 123.856 28.7244L122.399 28.3153C122.015 29.3381 121.127 29.8494 119.944 29.8494C118.174 29.8494 116.953 28.7053 116.883 26.6023H124.01V25.9631C124.01 22.3068 121.836 21.054 119.791 21.054C117.132 21.054 115.368 23.1506 115.368 26.1676C115.368 29.1847 117.106 31.2045 119.944 31.2045ZM116.883 25.2983C116.985 23.7706 118.065 22.4091 119.791 22.4091C121.427 22.4091 122.476 23.6364 122.476 25.2983H116.883ZM130.293 31.2045C132.466 31.2045 133.898 29.875 134.154 28.1364H132.645C132.364 29.2102 131.469 29.8494 130.293 29.8494C128.503 29.8494 127.353 28.3665 127.353 26.0909C127.353 23.8665 128.529 22.4091 130.293 22.4091C131.623 22.4091 132.415 23.2273 132.645 24.1222H134.154C133.898 22.2812 132.339 21.054 130.268 21.054C127.608 21.054 125.844 23.1506 125.844 26.142C125.844 29.0824 127.532 31.2045 130.293 31.2045ZM136.359 31H137.868V21.1818H136.359V31ZM137.126 19.5455C137.714 19.5455 138.2 19.0852 138.2 18.5227C138.2 17.9602 137.714 17.5 137.126 17.5C136.538 17.5 136.052 17.9602 136.052 18.5227C136.052 19.0852 136.538 19.5455 137.126 19.5455ZM143.52 31.2301C145.233 31.2301 146.128 30.3097 146.435 29.6705H146.511V31H148.02V24.5312C148.02 21.4119 145.642 21.054 144.389 21.054C142.906 21.054 141.219 21.5653 140.452 23.3551L141.884 23.8665C142.216 23.1506 143.002 22.3835 144.44 22.3835C145.827 22.3835 146.511 23.1186 146.511 24.3778V24.429C146.511 25.1577 145.77 25.0938 143.98 25.3239C142.158 25.5604 140.17 25.9631 140.17 28.2131C140.17 30.1307 141.653 31.2301 143.52 31.2301ZM143.75 29.875C142.548 29.875 141.679 29.3381 141.679 28.2898C141.679 27.1392 142.727 26.7812 143.903 26.6278C144.543 26.5511 146.256 26.3722 146.511 26.0653V27.446C146.511 28.6733 145.54 29.875 143.75 29.875ZM152.282 17.9091H150.773V31H152.282V17.9091ZM160.312 31H161.897V26.2188H164.761C167.81 26.2188 169.184 24.3651 169.184 22.0511C169.184 19.7372 167.81 17.9091 164.735 17.9091H160.312V31ZM161.897 24.8125V19.3153H164.684C166.812 19.3153 167.624 20.4787 167.624 22.0511C167.624 23.6236 166.812 24.8125 164.71 24.8125H161.897ZM171.533 31H173.042V24.7869C173.042 23.4574 174.09 22.4858 175.522 22.4858C175.924 22.4858 176.34 22.5625 176.442 22.5881V21.054C176.27 21.0412 175.873 21.0284 175.65 21.0284C174.473 21.0284 173.451 21.6932 173.093 22.6648H172.99V21.1818H171.533V31ZM181.92 31.2045C184.579 31.2045 186.369 29.1847 186.369 26.142C186.369 23.0739 184.579 21.054 181.92 21.054C179.261 21.054 177.471 23.0739 177.471 26.142C177.471 29.1847 179.261 31.2045 181.92 31.2045ZM181.92 29.8494C179.9 29.8494 178.98 28.1108 178.98 26.142C178.98 24.1733 179.9 22.4091 181.92 22.4091C183.94 22.4091 184.86 24.1733 184.86 26.142C184.86 28.1108 183.94 29.8494 181.92 29.8494ZM188.672 31H190.18V24.8636C190.18 23.4254 191.229 22.4091 192.405 22.4091C193.549 22.4091 194.348 23.157 194.348 24.2756V31H195.882V24.608C195.882 23.3423 196.675 22.4091 198.055 22.4091C199.129 22.4091 200.05 22.978 200.05 24.429V31H201.558V24.429C201.558 22.1214 200.318 21.054 198.567 21.054C197.16 21.054 196.131 21.6996 195.626 22.7159H195.524C195.038 21.6676 194.182 21.054 192.89 21.054C191.612 21.054 190.666 21.6676 190.257 22.7159H190.129V21.1818H188.672V31ZM208.305 31.2045C210.964 31.2045 212.754 29.1847 212.754 26.142C212.754 23.0739 210.964 21.054 208.305 21.054C205.646 21.054 203.856 23.0739 203.856 26.142C203.856 29.1847 205.646 31.2045 208.305 31.2045ZM208.305 29.8494C206.285 29.8494 205.365 28.1108 205.365 26.142C205.365 24.1733 206.285 22.4091 208.305 22.4091C210.325 22.4091 211.245 24.1733 211.245 26.142C211.245 28.1108 210.325 29.8494 208.305 29.8494Z" fill="#1D1D1F"/>
<path opacity="0.75" d="M100.009 49.0348H101.585C101.242 47.0511 99.5469 45.679 97.3494 45.679C94.7145 45.679 92.7905 47.6626 92.7905 50.9141C92.7905 54.1357 94.6598 56.1392 97.419 56.1392C99.8899 56.1392 101.655 54.5185 101.655 51.9482V50.7898H97.6527V52.0575H100.168C100.134 53.6982 99.0497 54.7372 97.419 54.7372C95.6243 54.7372 94.3168 53.38 94.3168 50.9041C94.3168 48.4382 95.6342 47.081 97.3594 47.081C98.7116 47.081 99.6264 47.8267 100.009 49.0348ZM106.777 56.1541C108.442 56.1541 109.621 55.3338 109.959 54.0909L108.552 53.8374C108.283 54.5582 107.637 54.9261 106.792 54.9261C105.519 54.9261 104.664 54.1009 104.624 52.6293H110.053V52.1023C110.053 49.343 108.403 48.2642 106.672 48.2642C104.545 48.2642 103.143 49.8849 103.143 52.2315C103.143 54.603 104.525 56.1541 106.777 56.1541ZM104.629 51.5156C104.689 50.4318 105.474 49.4922 106.682 49.4922C107.836 49.4922 108.591 50.3473 108.596 51.5156H104.629ZM115.267 48.3636H113.701V46.5341H112.214V48.3636H111.096V49.5568H112.214V54.0661C112.21 55.4531 113.268 56.1243 114.442 56.0994C114.914 56.0945 115.232 56.005 115.406 55.9403L115.138 54.7124C115.038 54.7322 114.854 54.777 114.616 54.777C114.134 54.777 113.701 54.6179 113.701 53.7578V49.5568H115.267V48.3636ZM126.339 50.228C126.031 49.0398 125.101 48.2642 123.45 48.2642C121.725 48.2642 120.502 49.174 120.502 50.5263C120.502 51.6101 121.158 52.331 122.59 52.6491L123.883 52.9325C124.619 53.0966 124.962 53.4247 124.962 53.902C124.962 54.4936 124.33 54.956 123.356 54.956C122.466 54.956 121.894 54.5732 121.715 53.8224L120.278 54.0412C120.527 55.3935 121.651 56.1541 123.366 56.1541C125.21 56.1541 126.488 55.1747 126.488 53.7926C126.488 52.7138 125.802 52.0476 124.4 51.7244L123.187 51.446C122.347 51.2472 121.984 50.9638 121.989 50.4467C121.984 49.8601 122.62 49.4425 123.465 49.4425C124.39 49.4425 124.817 49.9545 124.991 50.4666L126.339 50.228ZM128.122 58.8636H129.609V54.8118H129.698C129.967 55.299 130.514 56.1491 131.906 56.1491C133.755 56.1491 135.097 54.6676 135.097 52.1967C135.097 49.7209 133.735 48.2642 131.891 48.2642C130.474 48.2642 129.962 49.1293 129.698 49.6016H129.574V48.3636H128.122V58.8636ZM129.579 52.1818C129.579 50.5859 130.275 49.527 131.573 49.527C132.92 49.527 133.596 50.6655 133.596 52.1818C133.596 53.7131 132.9 54.8814 131.573 54.8814C130.295 54.8814 129.579 53.7876 129.579 52.1818ZM140.054 56.1541C141.72 56.1541 142.898 55.3338 143.236 54.0909L141.829 53.8374C141.561 54.5582 140.914 54.9261 140.069 54.9261C138.796 54.9261 137.941 54.1009 137.901 52.6293H143.33V52.1023C143.33 49.343 141.68 48.2642 139.95 48.2642C137.822 48.2642 136.42 49.8849 136.42 52.2315C136.42 54.603 137.802 56.1541 140.054 56.1541ZM137.906 51.5156C137.966 50.4318 138.752 49.4922 139.96 49.4922C141.113 49.4922 141.869 50.3473 141.874 51.5156H137.906ZM148.196 56.1541C150.001 56.1541 151.169 55.0703 151.333 53.5838H149.887C149.698 54.4091 149.056 54.8963 148.206 54.8963C146.949 54.8963 146.138 53.8473 146.138 52.1818C146.138 50.5462 146.963 49.517 148.206 49.517C149.151 49.517 149.728 50.1136 149.887 50.8295H151.333C151.174 49.2884 149.917 48.2642 148.181 48.2642C146.029 48.2642 144.637 49.8849 144.637 52.2166C144.637 54.5185 145.979 56.1541 148.196 56.1541ZM152.923 56H154.41V48.3636H152.923V56ZM153.674 47.1854C154.186 47.1854 154.613 46.7876 154.613 46.3004C154.613 45.8132 154.186 45.4105 153.674 45.4105C153.157 45.4105 152.734 45.8132 152.734 46.3004C152.734 46.7876 153.157 47.1854 153.674 47.1854ZM158.632 56.169C159.895 56.169 160.605 55.5277 160.889 54.956H160.949V56H162.4V50.929C162.4 48.7067 160.65 48.2642 159.437 48.2642C158.055 48.2642 156.782 48.821 156.285 50.2131L157.682 50.5312C157.901 49.9893 158.458 49.4673 159.457 49.4673C160.417 49.4673 160.909 49.9695 160.909 50.8345V50.8693C160.909 51.4112 160.352 51.4013 158.98 51.5604C157.533 51.7294 156.051 52.1072 156.051 53.8423C156.051 55.3438 157.18 56.169 158.632 56.169ZM158.955 54.9759C158.115 54.9759 157.508 54.598 157.508 53.8622C157.508 53.0668 158.214 52.7834 159.074 52.669C159.556 52.6044 160.7 52.4751 160.914 52.2614V53.2457C160.914 54.1506 160.193 54.9759 158.955 54.9759ZM165.867 45.8182H164.38V56H165.867V45.8182ZM171.572 58.8636H173.058V54.8118H173.148C173.416 55.299 173.963 56.1491 175.355 56.1491C177.204 56.1491 178.547 54.6676 178.547 52.1967C178.547 49.7209 177.184 48.2642 175.34 48.2642C173.923 48.2642 173.411 49.1293 173.148 49.6016H173.023V48.3636H171.572V58.8636ZM173.028 52.1818C173.028 50.5859 173.724 49.527 175.022 49.527C176.369 49.527 177.045 50.6655 177.045 52.1818C177.045 53.7131 176.349 54.8814 175.022 54.8814C173.744 54.8814 173.028 53.7876 173.028 52.1818ZM180.212 56H181.699V51.3366C181.699 50.3374 182.469 49.6165 183.523 49.6165C183.831 49.6165 184.18 49.6712 184.299 49.706V48.2841C184.15 48.2642 183.856 48.2493 183.667 48.2493C182.773 48.2493 182.007 48.7564 181.729 49.5767H181.649V48.3636H180.212V56ZM188.528 56.1541C190.681 56.1541 192.088 54.5781 192.088 52.2166C192.088 49.8402 190.681 48.2642 188.528 48.2642C186.376 48.2642 184.969 49.8402 184.969 52.2166C184.969 54.5781 186.376 56.1541 188.528 56.1541ZM188.533 54.9062C187.126 54.9062 186.47 53.6783 186.47 52.2116C186.47 50.75 187.126 49.5071 188.533 49.5071C189.93 49.5071 190.587 50.75 190.587 52.2116C190.587 53.6783 189.93 54.9062 188.533 54.9062ZM193.747 56H195.234V51.2919C195.234 50.2628 195.955 49.5469 196.8 49.5469C197.625 49.5469 198.197 50.0938 198.197 50.924V56H199.678V51.1328C199.678 50.2131 200.24 49.5469 201.21 49.5469C201.995 49.5469 202.642 49.9844 202.642 51.0185V56H204.128V50.8793C204.128 49.1342 203.154 48.2642 201.771 48.2642C200.673 48.2642 199.847 48.7912 199.48 49.6065H199.4C199.067 48.7713 198.366 48.2642 197.347 48.2642C196.338 48.2642 195.587 48.7663 195.269 49.6065H195.174V48.3636H193.747V56ZM209.337 56.1541C211.49 56.1541 212.897 54.5781 212.897 52.2166C212.897 49.8402 211.49 48.2642 209.337 48.2642C207.184 48.2642 205.777 49.8402 205.777 52.2166C205.777 54.5781 207.184 56.1541 209.337 56.1541ZM209.342 54.9062C207.935 54.9062 207.279 53.6783 207.279 52.2116C207.279 50.75 207.935 49.5071 209.342 49.5071C210.739 49.5071 211.395 50.75 211.395 52.2116C211.395 53.6783 210.739 54.9062 209.342 54.9062Z" fill="#1D1D1F"/>
</svg>
