<svg width="293" height="293" viewBox="0 0 293 293" fill="none" xmlns="http://www.w3.org/2000/svg">
<path d="M292.5 0.5H0V293H292.5V0.5Z" fill="#F3FCF7"/>
<path d="M291.75 1.25H0.75V292.25H291.75V1.25Z" stroke="#06C167" stroke-width="1.5"/>
<path d="M39.4091 48.75H46.6591V69H50.1591V48.75H57.4205V45.7273H39.4091V48.75ZM64.5256 58.6364C64.5256 55.8523 66.2869 54.2614 68.7074 54.2614C71.0483 54.2614 72.446 55.75 72.446 58.3068V69H75.8438V57.8977C75.8438 53.5455 73.4574 51.3182 69.8665 51.3182C67.1506 51.3182 65.5142 52.5 64.696 54.3864H64.4801V45.7273H61.1278V69H64.5256V58.6364ZM85.4574 69.3864C88.3438 69.3864 89.9688 67.9205 90.6165 66.6136H90.7528V69H94.071V57.4091C94.071 52.3295 90.071 51.3182 87.2983 51.3182C84.1392 51.3182 81.2301 52.5909 80.0938 55.7727L83.2869 56.5C83.7869 55.2614 85.0597 54.0682 87.3438 54.0682C89.5369 54.0682 90.6619 55.2159 90.6619 57.1932V57.2727C90.6619 58.5114 89.3892 58.4886 86.2528 58.8523C82.946 59.2386 79.5597 60.1023 79.5597 64.0682C79.5597 67.5 82.1392 69.3864 85.4574 69.3864ZM86.196 66.6591C84.2756 66.6591 82.8892 65.7955 82.8892 64.1136C82.8892 62.2955 84.5028 61.6477 86.4688 61.3864C87.571 61.2386 90.1847 60.9432 90.6733 60.4545V62.7045C90.6733 64.7727 89.0256 66.6591 86.196 66.6591ZM106.744 51.5455H103.165V47.3636H99.767V51.5455H97.2102V54.2727H99.767V64.5795C99.7557 67.75 102.176 69.2841 104.858 69.2273C105.938 69.2159 106.665 69.0114 107.062 68.8636L106.449 66.0568C106.222 66.1023 105.801 66.2045 105.256 66.2045C104.153 66.2045 103.165 65.8409 103.165 63.875V54.2727H106.744V51.5455ZM138.574 53.2955C137.778 48.3182 133.881 45.4091 128.96 45.4091C122.938 45.4091 118.494 49.9205 118.494 57.3636C118.494 64.8068 122.915 69.3182 128.96 69.3182C134.074 69.3182 137.812 66.1136 138.574 61.5114L135.028 61.5C134.426 64.4773 131.926 66.1136 128.983 66.1136C124.994 66.1136 121.983 63.0568 121.983 57.3636C121.983 51.7159 124.983 48.6136 128.994 48.6136C131.96 48.6136 134.449 50.2841 135.028 53.2955H138.574ZM149.855 69.3523C154.776 69.3523 157.991 65.75 157.991 60.3523C157.991 54.9205 154.776 51.3182 149.855 51.3182C144.935 51.3182 141.719 54.9205 141.719 60.3523C141.719 65.75 144.935 69.3523 149.855 69.3523ZM149.866 66.5C146.651 66.5 145.151 63.6932 145.151 60.3409C145.151 57 146.651 54.1591 149.866 54.1591C153.06 54.1591 154.56 57 154.56 60.3409C154.56 63.6932 153.06 66.5 149.866 66.5ZM161.784 69H165.182V58.2386C165.182 55.8864 166.83 54.25 168.761 54.25C170.648 54.25 171.955 55.5 171.955 57.3977V69H175.341V57.875C175.341 55.7727 176.625 54.25 178.841 54.25C180.636 54.25 182.114 55.25 182.114 57.6136V69H185.511V57.2955C185.511 53.3068 183.284 51.3182 180.125 51.3182C177.614 51.3182 175.727 52.5227 174.886 54.3864H174.705C173.943 52.4773 172.341 51.3182 170.011 51.3182C167.705 51.3182 165.989 52.4659 165.261 54.3864H165.045V51.5455H161.784V69ZM197.588 69.3523C201.395 69.3523 204.088 67.4773 204.861 64.6364L201.645 64.0568C201.031 65.7045 199.554 66.5455 197.622 66.5455C194.713 66.5455 192.759 64.6591 192.668 61.2955H205.077V60.0909C205.077 53.7841 201.304 51.3182 197.349 51.3182C192.486 51.3182 189.281 55.0227 189.281 60.3864C189.281 65.8068 192.44 69.3523 197.588 69.3523ZM192.679 58.75C192.815 56.2727 194.611 54.125 197.372 54.125C200.009 54.125 201.736 56.0795 201.747 58.75H192.679ZM221.926 55.8068C221.222 53.0909 219.097 51.3182 215.324 51.3182C211.381 51.3182 208.585 53.3977 208.585 56.4886C208.585 58.9659 210.085 60.6136 213.358 61.3409L216.312 61.9886C217.994 62.3636 218.778 63.1136 218.778 64.2045C218.778 65.5568 217.335 66.6136 215.108 66.6136C213.074 66.6136 211.767 65.7386 211.358 64.0227L208.074 64.5227C208.642 67.6136 211.21 69.3523 215.131 69.3523C219.347 69.3523 222.267 67.1136 222.267 63.9545C222.267 61.4886 220.699 59.9659 217.494 59.2273L214.722 58.5909C212.801 58.1364 211.972 57.4886 211.983 56.3068C211.972 54.9659 213.426 54.0114 215.358 54.0114C217.472 54.0114 218.449 55.1818 218.847 56.3523L221.926 55.8068ZM59.8864 92.2955C59.0909 87.3182 55.1932 84.4091 50.2727 84.4091C44.25 84.4091 39.8068 88.9205 39.8068 96.3636C39.8068 103.807 44.2273 108.318 50.2727 108.318C55.3864 108.318 59.125 105.114 59.8864 100.511L56.3409 100.5C55.7386 103.477 53.2386 105.114 50.2955 105.114C46.3068 105.114 43.2955 102.057 43.2955 96.3636C43.2955 90.7159 46.2955 87.6136 50.3068 87.6136C53.2727 87.6136 55.7614 89.2841 56.3409 92.2955H59.8864ZM67.2131 84.7273H63.8153V108H67.2131V84.7273ZM79.1364 108.352C84.0568 108.352 87.2727 104.75 87.2727 99.3523C87.2727 93.9205 84.0568 90.3182 79.1364 90.3182C74.2159 90.3182 71 93.9205 71 99.3523C71 104.75 74.2159 108.352 79.1364 108.352ZM79.1477 105.5C75.9318 105.5 74.4318 102.693 74.4318 99.3409C74.4318 96 75.9318 93.1591 79.1477 93.1591C82.3409 93.1591 83.8409 96 83.8409 99.3409C83.8409 102.693 82.3409 105.5 79.1477 105.5ZM104.145 94.8068C103.44 92.0909 101.315 90.3182 97.5426 90.3182C93.5994 90.3182 90.804 92.3977 90.804 95.4886C90.804 97.9659 92.304 99.6136 95.5767 100.341L98.5312 100.989C100.213 101.364 100.997 102.114 100.997 103.205C100.997 104.557 99.554 105.614 97.3267 105.614C95.2926 105.614 93.9858 104.739 93.5767 103.023L90.2926 103.523C90.8608 106.614 93.429 108.352 97.3494 108.352C101.565 108.352 104.486 106.114 104.486 102.955C104.486 100.489 102.918 98.9659 99.7131 98.2273L96.9403 97.5909C95.0199 97.1364 94.1903 96.4886 94.2017 95.3068C94.1903 93.9659 95.6449 93.0114 97.5767 93.0114C99.6903 93.0114 100.668 94.1818 101.065 95.3523L104.145 94.8068ZM115.744 108.352C119.551 108.352 122.244 106.477 123.017 103.636L119.801 103.057C119.188 104.705 117.71 105.545 115.778 105.545C112.869 105.545 110.915 103.659 110.824 100.295H123.233V99.0909C123.233 92.7841 119.46 90.3182 115.506 90.3182C110.642 90.3182 107.438 94.0227 107.438 99.3864C107.438 104.807 110.597 108.352 115.744 108.352ZM110.835 97.75C110.972 95.2727 112.767 93.125 115.528 93.125C118.165 93.125 119.892 95.0795 119.903 97.75H110.835Z" fill="#1D1D1F"/>
<path d="M40.5227 156H41.9773L44.5455 146.727H44.6364L47.2045 156H48.6591L51.8409 144.364H50.4091L47.9773 153.841H47.8636L45.3864 144.364H43.7955L41.3182 153.841H41.2045L38.7727 144.364H37.3409L40.5227 156ZM56.2614 156.182C58.0341 156.182 59.3295 155.295 59.7386 153.977L58.4432 153.614C58.1023 154.523 57.3125 154.977 56.2614 154.977C54.6875 154.977 53.6023 153.96 53.5398 152.091H59.875V151.523C59.875 148.273 57.9432 147.159 56.125 147.159C53.7614 147.159 52.1932 149.023 52.1932 151.705C52.1932 154.386 53.7386 156.182 56.2614 156.182ZM53.5398 150.932C53.6307 149.574 54.5909 148.364 56.125 148.364C57.5795 148.364 58.5114 149.455 58.5114 150.932H53.5398ZM69.9602 156.182C72.3239 156.182 73.9148 154.386 73.9148 151.682C73.9148 148.955 72.3239 147.159 69.9602 147.159C67.5966 147.159 66.0057 148.955 66.0057 151.682C66.0057 154.386 67.5966 156.182 69.9602 156.182ZM69.9602 154.977C68.1648 154.977 67.3466 153.432 67.3466 151.682C67.3466 149.932 68.1648 148.364 69.9602 148.364C71.7557 148.364 72.5739 149.932 72.5739 151.682C72.5739 153.432 71.7557 154.977 69.9602 154.977ZM79.848 147.273H77.8935V146.386C77.8935 145.523 78.2571 145.068 79.1435 145.068C79.5298 145.068 79.7571 145.159 79.8935 145.205L80.2798 144.045C80.0753 143.955 79.6662 143.818 79.0071 143.818C77.7571 143.818 76.5526 144.568 76.5526 146.068V147.273H75.1435V148.409H76.5526V156H77.8935V148.409H79.848V147.273ZM85.6136 147.273H83.6591V146.386C83.6591 145.523 84.0227 145.068 84.9091 145.068C85.2955 145.068 85.5227 145.159 85.6591 145.205L86.0455 144.045C85.8409 143.955 85.4318 143.818 84.7727 143.818C83.5227 143.818 82.3182 144.568 82.3182 146.068V147.273H80.9091V148.409H82.3182V156H83.6591V148.409H85.6136V147.273ZM90.7926 156.182C92.5653 156.182 93.8608 155.295 94.2699 153.977L92.9744 153.614C92.6335 154.523 91.8438 154.977 90.7926 154.977C89.2188 154.977 88.1335 153.96 88.071 152.091H94.4062V151.523C94.4062 148.273 92.4744 147.159 90.6562 147.159C88.2926 147.159 86.7244 149.023 86.7244 151.705C86.7244 154.386 88.2699 156.182 90.7926 156.182ZM88.071 150.932C88.1619 149.574 89.1222 148.364 90.6562 148.364C92.1108 148.364 93.0426 149.455 93.0426 150.932H88.071ZM96.446 156H97.7869V150.477C97.7869 149.295 98.7188 148.432 99.9915 148.432C100.349 148.432 100.719 148.5 100.81 148.523V147.159C100.656 147.148 100.304 147.136 100.105 147.136C99.0597 147.136 98.1506 147.727 97.8324 148.591H97.7415V147.273H96.446V156ZM110.695 147.273H108.831V145.182H107.49V147.273H106.172V148.409H107.49V153.864C107.49 155.386 108.717 156.114 109.854 156.114C110.354 156.114 110.672 156.023 110.854 155.955L110.581 154.75C110.467 154.773 110.286 154.818 109.99 154.818C109.399 154.818 108.831 154.636 108.831 153.5V148.409H110.695V147.273ZM114.24 150.75C114.24 149.227 115.212 148.364 116.536 148.364C117.797 148.364 118.558 149.159 118.558 150.545V156H119.899V150.455C119.899 148.21 118.706 147.159 116.922 147.159C115.547 147.159 114.763 147.733 114.354 148.636H114.24V144.364H112.899V156H114.24V150.75ZM126.011 156.182C127.784 156.182 129.08 155.295 129.489 153.977L128.193 153.614C127.852 154.523 127.062 154.977 126.011 154.977C124.438 154.977 123.352 153.96 123.29 152.091H129.625V151.523C129.625 148.273 127.693 147.159 125.875 147.159C123.511 147.159 121.943 149.023 121.943 151.705C121.943 154.386 123.489 156.182 126.011 156.182ZM123.29 150.932C123.381 149.574 124.341 148.364 125.875 148.364C127.33 148.364 128.261 149.455 128.261 150.932H123.29ZM140.051 147.273H138.097V146.386C138.097 145.523 138.46 145.068 139.347 145.068C139.733 145.068 139.96 145.159 140.097 145.205L140.483 144.045C140.278 143.955 139.869 143.818 139.21 143.818C137.96 143.818 136.756 144.568 136.756 146.068V147.273H135.347V148.409H136.756V156H138.097V148.409H140.051V147.273ZM145.116 156.182C147.48 156.182 149.071 154.386 149.071 151.682C149.071 148.955 147.48 147.159 145.116 147.159C142.753 147.159 141.162 148.955 141.162 151.682C141.162 154.386 142.753 156.182 145.116 156.182ZM145.116 154.977C143.321 154.977 142.503 153.432 142.503 151.682C142.503 149.932 143.321 148.364 145.116 148.364C146.912 148.364 147.73 149.932 147.73 151.682C147.73 153.432 146.912 154.977 145.116 154.977ZM152.459 144.364H151.118V156H152.459V144.364ZM156.256 144.364H154.915V156H156.256V144.364ZM162.257 156.182C164.621 156.182 166.212 154.386 166.212 151.682C166.212 148.955 164.621 147.159 162.257 147.159C159.893 147.159 158.303 148.955 158.303 151.682C158.303 154.386 159.893 156.182 162.257 156.182ZM162.257 154.977C160.462 154.977 159.643 153.432 159.643 151.682C159.643 149.932 160.462 148.364 162.257 148.364C164.053 148.364 164.871 149.932 164.871 151.682C164.871 153.432 164.053 154.977 162.257 154.977ZM169.939 156H171.257L173.166 149.295H173.303L175.212 156H176.53L179.189 147.273H177.78L175.893 153.932H175.803L173.962 147.273H172.53L170.666 153.955H170.575L168.689 147.273H167.28L169.939 156ZM180.962 156H182.303V147.273H180.962V156ZM181.643 145.818C182.166 145.818 182.598 145.409 182.598 144.909C182.598 144.409 182.166 144 181.643 144C181.121 144 180.689 144.409 180.689 144.909C180.689 145.409 181.121 145.818 181.643 145.818ZM186.099 150.75C186.099 149.227 187.043 148.364 188.327 148.364C189.571 148.364 190.327 149.176 190.327 150.545V156H191.668V150.455C191.668 148.227 190.48 147.159 188.713 147.159C187.395 147.159 186.577 147.75 186.168 148.636H186.054V147.273H184.759V156H186.099V150.75ZM197.641 159.455C199.732 159.455 201.413 158.5 201.413 156.25V147.273H200.118V148.659H199.982C199.686 148.205 199.141 147.159 197.436 147.159C195.232 147.159 193.709 148.909 193.709 151.591C193.709 154.318 195.3 155.864 197.413 155.864C199.118 155.864 199.663 154.864 199.959 154.386H200.072V156.159C200.072 157.614 199.05 158.273 197.641 158.273C196.055 158.273 195.499 157.438 195.141 156.955L194.072 157.705C194.618 158.619 195.692 159.455 197.641 159.455ZM197.595 154.659C195.913 154.659 195.05 153.386 195.05 151.568C195.05 149.795 195.891 148.364 197.595 148.364C199.232 148.364 200.095 149.682 200.095 151.568C200.095 153.5 199.209 154.659 197.595 154.659ZM44.4091 168.227C43.9886 166.989 43.0455 166.159 41.3182 166.159C39.4773 166.159 38.1136 167.205 38.1136 168.682C38.1136 169.886 38.8295 170.693 40.4318 171.068L41.8864 171.409C42.767 171.614 43.1818 172.034 43.1818 172.636C43.1818 173.386 42.3864 174 41.1364 174C40.0398 174 39.3523 173.528 39.1136 172.591L37.8409 172.909C38.1534 174.392 39.375 175.182 41.1591 175.182C43.1875 175.182 44.5682 174.074 44.5682 172.568C44.5682 171.352 43.8068 170.585 42.25 170.205L40.9545 169.886C39.9205 169.631 39.4545 169.284 39.4545 168.614C39.4545 167.864 40.25 167.318 41.3182 167.318C42.4886 167.318 42.9716 167.966 43.2045 168.568L44.4091 168.227ZM50.2457 175.182C52.0185 175.182 53.3139 174.295 53.723 172.977L52.4276 172.614C52.0866 173.523 51.2969 173.977 50.2457 173.977C48.6719 173.977 47.5866 172.96 47.5241 171.091H53.8594V170.523C53.8594 167.273 51.9276 166.159 50.1094 166.159C47.7457 166.159 46.1776 168.023 46.1776 170.705C46.1776 173.386 47.723 175.182 50.2457 175.182ZM47.5241 169.932C47.6151 168.574 48.5753 167.364 50.1094 167.364C51.5639 167.364 52.4957 168.455 52.4957 169.932H47.5241ZM55.8991 175H57.2401V169.477C57.2401 168.295 58.1719 167.432 59.4446 167.432C59.8026 167.432 60.1719 167.5 60.2628 167.523V166.159C60.1094 166.148 59.7571 166.136 59.5582 166.136C58.5128 166.136 57.6037 166.727 57.2855 167.591H57.1946V166.273H55.8991V175ZM69.2543 166.273H67.7997L65.3906 173.227H65.2997L62.8906 166.273H61.4361L64.6634 175H66.027L69.2543 166.273ZM71.0241 175H72.3651V166.273H71.0241V175ZM71.706 164.818C72.2287 164.818 72.6605 164.409 72.6605 163.909C72.6605 163.409 72.2287 163 71.706 163C71.1832 163 70.7514 163.409 70.7514 163.909C70.7514 164.409 71.1832 164.818 71.706 164.818ZM78.3665 175.182C80.2983 175.182 81.571 174 81.7983 172.455H80.4574C80.2074 173.409 79.4119 173.977 78.3665 173.977C76.7756 173.977 75.7528 172.659 75.7528 170.636C75.7528 168.659 76.7983 167.364 78.3665 167.364C79.5483 167.364 80.2528 168.091 80.4574 168.886H81.7983C81.571 167.25 80.1847 166.159 78.3438 166.159C75.9801 166.159 74.4119 168.023 74.4119 170.682C74.4119 173.295 75.9119 175.182 78.3665 175.182ZM87.4176 175.182C89.1903 175.182 90.4858 174.295 90.8949 172.977L89.5994 172.614C89.2585 173.523 88.4688 173.977 87.4176 173.977C85.8438 173.977 84.7585 172.96 84.696 171.091H91.0312V170.523C91.0312 167.273 89.0994 166.159 87.2812 166.159C84.9176 166.159 83.3494 168.023 83.3494 170.705C83.3494 173.386 84.8949 175.182 87.4176 175.182ZM84.696 169.932C84.7869 168.574 85.7472 167.364 87.2812 167.364C88.7358 167.364 89.6676 168.455 89.6676 169.932H84.696ZM99.2528 168.227C98.8324 166.989 97.8892 166.159 96.1619 166.159C94.321 166.159 92.9574 167.205 92.9574 168.682C92.9574 169.886 93.6733 170.693 95.2756 171.068L96.7301 171.409C97.6108 171.614 98.0256 172.034 98.0256 172.636C98.0256 173.386 97.2301 174 95.9801 174C94.8835 174 94.196 173.528 93.9574 172.591L92.6847 172.909C92.9972 174.392 94.2188 175.182 96.0028 175.182C98.0312 175.182 99.4119 174.074 99.4119 172.568C99.4119 171.352 98.6506 170.585 97.0938 170.205L95.7983 169.886C94.7642 169.631 94.2983 169.284 94.2983 168.614C94.2983 167.864 95.0938 167.318 96.1619 167.318C97.3324 167.318 97.8153 167.966 98.0483 168.568L99.2528 168.227Z" fill="#1D1D1F"/>
<path d="M185.5 217H37.5V259H185.5V217Z" fill="#E6F9F0"/>
<path d="M56.2301 243C59.554 243 61.4769 240.939 61.4769 237.529C61.4769 234.136 59.554 232.091 56.342 232.091H52.6985V243H56.2301ZM54.3445 241.562V233.529H56.2408C58.6271 233.529 59.8576 234.957 59.8576 237.529C59.8576 240.113 58.6271 241.562 56.1396 241.562H54.3445ZM63.3959 243H64.9885V234.818H63.3959V243ZM64.2002 233.556C64.7488 233.556 65.2069 233.13 65.2069 232.608C65.2069 232.086 64.7488 231.654 64.2002 231.654C63.6462 231.654 63.1934 232.086 63.1934 232.608C63.1934 233.13 63.6462 233.556 64.2002 233.556ZM73.2623 236.816C72.932 235.543 71.9359 234.712 70.1674 234.712C68.3191 234.712 67.0087 235.686 67.0087 237.135C67.0087 238.297 67.7118 239.069 69.2459 239.41L70.6309 239.713C71.4192 239.889 71.7868 240.241 71.7868 240.752C71.7868 241.386 71.1103 241.881 70.0662 241.881C69.1127 241.881 68.5002 241.471 68.3084 240.667L66.769 240.901C67.0353 242.35 68.2392 243.165 70.0769 243.165C72.0531 243.165 73.4221 242.116 73.4221 240.635C73.4221 239.479 72.687 238.765 71.1848 238.419L69.8851 238.121C68.9849 237.908 68.5961 237.604 68.6014 237.05C68.5961 236.422 69.2779 235.974 70.1834 235.974C71.1742 235.974 71.6323 236.523 71.8187 237.071L73.2623 236.816ZM78.6196 243.165C80.5532 243.165 81.805 242.004 81.9807 240.411H80.4307C80.2282 241.295 79.5411 241.817 78.6302 241.817C77.2826 241.817 76.4143 240.694 76.4143 238.909C76.4143 237.157 77.2986 236.054 78.6302 236.054C79.6423 236.054 80.2602 236.693 80.4307 237.46H81.9807C81.8103 235.809 80.4626 234.712 78.6036 234.712C76.2971 234.712 74.8057 236.448 74.8057 238.946C74.8057 241.413 76.2439 243.165 78.6196 243.165ZM87.1303 243.165C89.4368 243.165 90.9442 241.477 90.9442 238.946C90.9442 236.4 89.4368 234.712 87.1303 234.712C84.8239 234.712 83.3164 236.4 83.3164 238.946C83.3164 241.477 84.8239 243.165 87.1303 243.165ZM87.1357 241.828C85.6282 241.828 84.9251 240.512 84.9251 238.941C84.9251 237.375 85.6282 236.043 87.1357 236.043C88.6325 236.043 89.3356 237.375 89.3356 238.941C89.3356 240.512 88.6325 241.828 87.1357 241.828ZM99.4284 234.818H97.7185L95.6517 241.114H95.5665L93.4944 234.818H91.7845L94.7568 243H96.4614L99.4284 234.818ZM104.158 243.165C105.943 243.165 107.205 242.286 107.568 240.955L106.06 240.683C105.772 241.455 105.08 241.849 104.174 241.849C102.811 241.849 101.895 240.965 101.852 239.388H107.669V238.824C107.669 235.868 105.9 234.712 104.047 234.712C101.767 234.712 100.265 236.448 100.265 238.962C100.265 241.503 101.745 243.165 104.158 243.165ZM101.857 238.195C101.921 237.034 102.763 236.027 104.057 236.027C105.293 236.027 106.103 236.944 106.108 238.195H101.857ZM109.436 243H111.029V238.004C111.029 236.933 111.854 236.161 112.983 236.161C113.314 236.161 113.687 236.219 113.814 236.256V234.733C113.655 234.712 113.34 234.696 113.138 234.696C112.179 234.696 111.359 235.239 111.061 236.118H110.975V234.818H109.436V243ZM128.095 232.091H126.465V240.102H126.364L120.814 232.091H119.29V243H120.936V234.999H121.037L126.583 243H128.095V232.091ZM133.815 243.165C136.121 243.165 137.629 241.477 137.629 238.946C137.629 236.4 136.121 234.712 133.815 234.712C131.508 234.712 130.001 236.4 130.001 238.946C130.001 241.477 131.508 243.165 133.815 243.165ZM133.82 241.828C132.313 241.828 131.61 240.512 131.61 238.941C131.61 237.375 132.313 236.043 133.82 236.043C135.317 236.043 136.02 237.375 136.02 238.941C136.02 240.512 135.317 241.828 133.82 241.828ZM140.931 243H142.551L144.213 237.093H144.335L145.997 243H147.622L150.024 234.818H148.378L146.785 240.8H146.706L145.108 234.818H143.462L141.853 240.827H141.773L140.17 234.818H138.524L140.931 243Z" fill="#06C167"/>
<path d="M167.845 236.912H159.612C159.525 236.912 159.442 236.947 159.381 237.008C159.319 237.069 159.285 237.152 159.285 237.239V238.766C159.285 238.853 159.319 238.936 159.381 238.997C159.442 239.059 159.525 239.093 159.612 239.093H167.845V240.349C167.845 240.479 167.883 240.605 167.955 240.713C168.027 240.821 168.129 240.905 168.248 240.954C168.368 241.004 168.5 241.017 168.627 240.992C168.754 240.966 168.87 240.904 168.962 240.812L171.309 238.465C171.37 238.404 171.418 238.332 171.451 238.253C171.484 238.174 171.501 238.089 171.501 238.003C171.501 237.917 171.484 237.832 171.451 237.752C171.418 237.673 171.37 237.601 171.309 237.54L168.962 235.192C168.87 235.1 168.754 235.038 168.627 235.013C168.5 234.987 168.368 235 168.248 235.05C168.129 235.099 168.027 235.183 167.955 235.291C167.883 235.399 167.845 235.526 167.845 235.655V236.912Z" fill="#06C167"/>
</svg>
