<svg width="293" height="293" viewBox="0 0 293 293" fill="none" xmlns="http://www.w3.org/2000/svg">
<path d="M293 0H0.5V292.5H293V0Z" fill="#F3FCF7"/>
<path d="M292.25 0.75H1.25V291.75H292.25V0.75Z" stroke="#06C167" stroke-width="1.5"/>
<path d="M42.5909 44.7273H38.7955L47.1705 68H51.2273L59.6023 44.7273H55.8068L49.3295 63.6818H49.0682L42.5909 44.7273ZM68.4631 68.3523C72.2699 68.3523 74.9631 66.4773 75.7358 63.6364L72.5199 63.0568C71.9062 64.7045 70.429 65.5455 68.4972 65.5455C65.5881 65.5455 63.6335 63.6591 63.5426 60.2955H75.9517V59.0909C75.9517 52.7841 72.179 50.3182 68.2244 50.3182C63.3608 50.3182 60.1562 54.0227 60.1562 59.3864C60.1562 64.8068 63.3153 68.3523 68.4631 68.3523ZM63.554 57.75C63.6903 55.2727 65.4858 53.125 68.2472 53.125C70.8835 53.125 72.6108 55.0795 72.6222 57.75H63.554ZM87.0398 74.9091C91.483 74.9091 94.9148 72.875 94.9148 68.3864V50.5455H91.5852V53.375H91.3352C90.733 52.2955 89.5284 50.3182 86.2784 50.3182C82.0625 50.3182 78.9602 53.6477 78.9602 59.2045C78.9602 64.7727 82.1307 67.7386 86.2557 67.7386C89.4602 67.7386 90.6989 65.9318 91.3125 64.8182H91.5284V68.25C91.5284 70.9886 89.6534 72.1705 87.0739 72.1705C84.2443 72.1705 83.142 70.75 82.5398 69.75L79.6193 70.9545C80.5398 73.0909 82.8693 74.9091 87.0398 74.9091ZM87.0057 64.9205C83.9716 64.9205 82.392 62.5909 82.392 59.1591C82.392 55.8068 83.9375 53.2045 87.0057 53.2045C89.9716 53.2045 91.5625 55.625 91.5625 59.1591C91.5625 62.7614 89.9375 64.9205 87.0057 64.9205ZM106.79 74.9091C111.233 74.9091 114.665 72.875 114.665 68.3864V50.5455H111.335V53.375H111.085C110.483 52.2955 109.278 50.3182 106.028 50.3182C101.812 50.3182 98.7102 53.6477 98.7102 59.2045C98.7102 64.7727 101.881 67.7386 106.006 67.7386C109.21 67.7386 110.449 65.9318 111.062 64.8182H111.278V68.25C111.278 70.9886 109.403 72.1705 106.824 72.1705C103.994 72.1705 102.892 70.75 102.29 69.75L99.3693 70.9545C100.29 73.0909 102.619 74.9091 106.79 74.9091ZM106.756 64.9205C103.722 64.9205 102.142 62.5909 102.142 59.1591C102.142 55.8068 103.688 53.2045 106.756 53.2045C109.722 53.2045 111.312 55.625 111.312 59.1591C111.312 62.7614 109.688 64.9205 106.756 64.9205ZM119.222 68H122.619V50.5455H119.222V68ZM120.938 47.8523C122.108 47.8523 123.085 46.9432 123.085 45.8295C123.085 44.7159 122.108 43.7955 120.938 43.7955C119.756 43.7955 118.79 44.7159 118.79 45.8295C118.79 46.9432 119.756 47.8523 120.938 47.8523ZM134.713 68.3523C138.52 68.3523 141.213 66.4773 141.986 63.6364L138.77 63.0568C138.156 64.7045 136.679 65.5455 134.747 65.5455C131.838 65.5455 129.884 63.6591 129.793 60.2955H142.202V59.0909C142.202 52.7841 138.429 50.3182 134.474 50.3182C129.611 50.3182 126.406 54.0227 126.406 59.3864C126.406 64.8068 129.565 68.3523 134.713 68.3523ZM129.804 57.75C129.94 55.2727 131.736 53.125 134.497 53.125C137.134 53.125 138.861 55.0795 138.872 57.75H129.804ZM159.051 54.8068C158.347 52.0909 156.222 50.3182 152.449 50.3182C148.506 50.3182 145.71 52.3977 145.71 55.4886C145.71 57.9659 147.21 59.6136 150.483 60.3409L153.438 60.9886C155.119 61.3636 155.903 62.1136 155.903 63.2045C155.903 64.5568 154.46 65.6136 152.233 65.6136C150.199 65.6136 148.892 64.7386 148.483 63.0227L145.199 63.5227C145.767 66.6136 148.335 68.3523 152.256 68.3523C156.472 68.3523 159.392 66.1136 159.392 62.9545C159.392 60.4886 157.824 58.9659 154.619 58.2273L151.847 57.5909C149.926 57.1364 149.097 56.4886 149.108 55.3068C149.097 53.9659 150.551 53.0114 152.483 53.0114C154.597 53.0114 155.574 54.1818 155.972 55.3523L159.051 54.8068ZM173.835 68L175.972 61.8409H185.062L187.188 68H190.915L182.54 44.7273H178.483L170.108 68H173.835ZM176.994 58.8864L180.426 48.9545H180.608L184.04 58.8864H176.994ZM194.003 68H197.401V57.3409C197.401 55.0568 199.162 53.4091 201.571 53.4091C202.276 53.4091 203.071 53.5341 203.344 53.6136V50.3636C203.003 50.3182 202.332 50.2841 201.901 50.2841C199.855 50.2841 198.105 51.4432 197.469 53.3182H197.287V50.5455H194.003V68ZM213.182 68.3523C216.989 68.3523 219.682 66.4773 220.455 63.6364L217.239 63.0568C216.625 64.7045 215.148 65.5455 213.216 65.5455C210.307 65.5455 208.352 63.6591 208.261 60.2955H220.67V59.0909C220.67 52.7841 216.898 50.3182 212.943 50.3182C208.08 50.3182 204.875 54.0227 204.875 59.3864C204.875 64.8068 208.034 68.3523 213.182 68.3523ZM208.273 57.75C208.409 55.2727 210.205 53.125 212.966 53.125C215.602 53.125 217.33 55.0795 217.341 57.75H208.273ZM40.5568 107H44.0682V96.8523H53.9545V93.8409H44.0682V86.75H54.9886V83.7273H40.5568V107ZM65.1051 107.352C70.0256 107.352 73.2415 103.75 73.2415 98.3523C73.2415 92.9205 70.0256 89.3182 65.1051 89.3182C60.1847 89.3182 56.9688 92.9205 56.9688 98.3523C56.9688 103.75 60.1847 107.352 65.1051 107.352ZM65.1165 104.5C61.9006 104.5 60.4006 101.693 60.4006 98.3409C60.4006 95 61.9006 92.1591 65.1165 92.1591C68.3097 92.1591 69.8097 95 69.8097 98.3409C69.8097 101.693 68.3097 104.5 65.1165 104.5ZM77.0341 107H80.4318V96.3409C80.4318 94.0568 82.1932 92.4091 84.6023 92.4091C85.3068 92.4091 86.1023 92.5341 86.375 92.6136V89.3636C86.0341 89.3182 85.3636 89.2841 84.9318 89.2841C82.8864 89.2841 81.1364 90.4432 80.5 92.3182H80.3182V89.5455H77.0341V107ZM96.2131 107.352C100.02 107.352 102.713 105.477 103.486 102.636L100.27 102.057C99.6562 103.705 98.179 104.545 96.2472 104.545C93.3381 104.545 91.3835 102.659 91.2926 99.2955H103.702V98.0909C103.702 91.7841 99.929 89.3182 95.9744 89.3182C91.1108 89.3182 87.9062 93.0227 87.9062 98.3864C87.9062 103.807 91.0653 107.352 96.2131 107.352ZM91.304 96.75C91.4403 94.2727 93.2358 92.125 95.9972 92.125C98.6335 92.125 100.361 94.0795 100.372 96.75H91.304ZM121.872 89.5455H118.224L113.815 102.977H113.634L109.213 89.5455H105.565L111.906 107H115.543L121.872 89.5455ZM131.963 107.352C135.77 107.352 138.463 105.477 139.236 102.636L136.02 102.057C135.406 103.705 133.929 104.545 131.997 104.545C129.088 104.545 127.134 102.659 127.043 99.2955H139.452V98.0909C139.452 91.7841 135.679 89.3182 131.724 89.3182C126.861 89.3182 123.656 93.0227 123.656 98.3864C123.656 103.807 126.815 107.352 131.963 107.352ZM127.054 96.75C127.19 94.2727 128.986 92.125 131.747 92.125C134.384 92.125 136.111 94.0795 136.122 96.75H127.054ZM143.222 107H146.619V96.3409C146.619 94.0568 148.381 92.4091 150.79 92.4091C151.494 92.4091 152.29 92.5341 152.562 92.6136V89.3636C152.222 89.3182 151.551 89.2841 151.119 89.2841C149.074 89.2841 147.324 90.4432 146.688 92.3182H146.506V89.5455H143.222V107Z" fill="#1D1D1F"/>
<path d="M41.5227 155H42.9773L45.5455 145.727H45.6364L48.2045 155H49.6591L52.8409 143.364H51.4091L48.9773 152.841H48.8636L46.3864 143.364H44.7955L42.3182 152.841H42.2045L39.7727 143.364H38.3409L41.5227 155ZM57.2614 155.182C59.0341 155.182 60.3295 154.295 60.7386 152.977L59.4432 152.614C59.1023 153.523 58.3125 153.977 57.2614 153.977C55.6875 153.977 54.6023 152.96 54.5398 151.091H60.875V150.523C60.875 147.273 58.9432 146.159 57.125 146.159C54.7614 146.159 53.1932 148.023 53.1932 150.705C53.1932 153.386 54.7386 155.182 57.2614 155.182ZM54.5398 149.932C54.6307 148.574 55.5909 147.364 57.125 147.364C58.5795 147.364 59.5114 148.455 59.5114 149.932H54.5398ZM70.9602 155.182C73.3239 155.182 74.9148 153.386 74.9148 150.682C74.9148 147.955 73.3239 146.159 70.9602 146.159C68.5966 146.159 67.0057 147.955 67.0057 150.682C67.0057 153.386 68.5966 155.182 70.9602 155.182ZM70.9602 153.977C69.1648 153.977 68.3466 152.432 68.3466 150.682C68.3466 148.932 69.1648 147.364 70.9602 147.364C72.7557 147.364 73.5739 148.932 73.5739 150.682C73.5739 152.432 72.7557 153.977 70.9602 153.977ZM80.848 146.273H78.8935V145.386C78.8935 144.523 79.2571 144.068 80.1435 144.068C80.5298 144.068 80.7571 144.159 80.8935 144.205L81.2798 143.045C81.0753 142.955 80.6662 142.818 80.0071 142.818C78.7571 142.818 77.5526 143.568 77.5526 145.068V146.273H76.1435V147.409H77.5526V155H78.8935V147.409H80.848V146.273ZM86.6136 146.273H84.6591V145.386C84.6591 144.523 85.0227 144.068 85.9091 144.068C86.2955 144.068 86.5227 144.159 86.6591 144.205L87.0455 143.045C86.8409 142.955 86.4318 142.818 85.7727 142.818C84.5227 142.818 83.3182 143.568 83.3182 145.068V146.273H81.9091V147.409H83.3182V155H84.6591V147.409H86.6136V146.273ZM91.7926 155.182C93.5653 155.182 94.8608 154.295 95.2699 152.977L93.9744 152.614C93.6335 153.523 92.8438 153.977 91.7926 153.977C90.2188 153.977 89.1335 152.96 89.071 151.091H95.4062V150.523C95.4062 147.273 93.4744 146.159 91.6562 146.159C89.2926 146.159 87.7244 148.023 87.7244 150.705C87.7244 153.386 89.2699 155.182 91.7926 155.182ZM89.071 149.932C89.1619 148.574 90.1222 147.364 91.6562 147.364C93.1108 147.364 94.0426 148.455 94.0426 149.932H89.071ZM97.446 155H98.7869V149.477C98.7869 148.295 99.7188 147.432 100.991 147.432C101.349 147.432 101.719 147.5 101.81 147.523V146.159C101.656 146.148 101.304 146.136 101.105 146.136C100.06 146.136 99.1506 146.727 98.8324 147.591H98.7415V146.273H97.446V155ZM111.695 146.273H109.831V144.182H108.49V146.273H107.172V147.409H108.49V152.864C108.49 154.386 109.717 155.114 110.854 155.114C111.354 155.114 111.672 155.023 111.854 154.955L111.581 153.75C111.467 153.773 111.286 153.818 110.99 153.818C110.399 153.818 109.831 153.636 109.831 152.5V147.409H111.695V146.273ZM115.24 149.75C115.24 148.227 116.212 147.364 117.536 147.364C118.797 147.364 119.558 148.159 119.558 149.545V155H120.899V149.455C120.899 147.21 119.706 146.159 117.922 146.159C116.547 146.159 115.763 146.733 115.354 147.636H115.24V143.364H113.899V155H115.24V149.75ZM127.011 155.182C128.784 155.182 130.08 154.295 130.489 152.977L129.193 152.614C128.852 153.523 128.062 153.977 127.011 153.977C125.438 153.977 124.352 152.96 124.29 151.091H130.625V150.523C130.625 147.273 128.693 146.159 126.875 146.159C124.511 146.159 122.943 148.023 122.943 150.705C122.943 153.386 124.489 155.182 127.011 155.182ZM124.29 149.932C124.381 148.574 125.341 147.364 126.875 147.364C128.33 147.364 129.261 148.455 129.261 149.932H124.29ZM141.051 146.273H139.097V145.386C139.097 144.523 139.46 144.068 140.347 144.068C140.733 144.068 140.96 144.159 141.097 144.205L141.483 143.045C141.278 142.955 140.869 142.818 140.21 142.818C138.96 142.818 137.756 143.568 137.756 145.068V146.273H136.347V147.409H137.756V155H139.097V147.409H141.051V146.273ZM146.116 155.182C148.48 155.182 150.071 153.386 150.071 150.682C150.071 147.955 148.48 146.159 146.116 146.159C143.753 146.159 142.162 147.955 142.162 150.682C142.162 153.386 143.753 155.182 146.116 155.182ZM146.116 153.977C144.321 153.977 143.503 152.432 143.503 150.682C143.503 148.932 144.321 147.364 146.116 147.364C147.912 147.364 148.73 148.932 148.73 150.682C148.73 152.432 147.912 153.977 146.116 153.977ZM153.459 143.364H152.118V155H153.459V143.364ZM157.256 143.364H155.915V155H157.256V143.364ZM163.257 155.182C165.621 155.182 167.212 153.386 167.212 150.682C167.212 147.955 165.621 146.159 163.257 146.159C160.893 146.159 159.303 147.955 159.303 150.682C159.303 153.386 160.893 155.182 163.257 155.182ZM163.257 153.977C161.462 153.977 160.643 152.432 160.643 150.682C160.643 148.932 161.462 147.364 163.257 147.364C165.053 147.364 165.871 148.932 165.871 150.682C165.871 152.432 165.053 153.977 163.257 153.977ZM170.939 155H172.257L174.166 148.295H174.303L176.212 155H177.53L180.189 146.273H178.78L176.893 152.932H176.803L174.962 146.273H173.53L171.666 152.955H171.575L169.689 146.273H168.28L170.939 155ZM181.962 155H183.303V146.273H181.962V155ZM182.643 144.818C183.166 144.818 183.598 144.409 183.598 143.909C183.598 143.409 183.166 143 182.643 143C182.121 143 181.689 143.409 181.689 143.909C181.689 144.409 182.121 144.818 182.643 144.818ZM187.099 149.75C187.099 148.227 188.043 147.364 189.327 147.364C190.571 147.364 191.327 148.176 191.327 149.545V155H192.668V149.455C192.668 147.227 191.48 146.159 189.713 146.159C188.395 146.159 187.577 146.75 187.168 147.636H187.054V146.273H185.759V155H187.099V149.75ZM198.641 158.455C200.732 158.455 202.413 157.5 202.413 155.25V146.273H201.118V147.659H200.982C200.686 147.205 200.141 146.159 198.436 146.159C196.232 146.159 194.709 147.909 194.709 150.591C194.709 153.318 196.3 154.864 198.413 154.864C200.118 154.864 200.663 153.864 200.959 153.386H201.072V155.159C201.072 156.614 200.05 157.273 198.641 157.273C197.055 157.273 196.499 156.438 196.141 155.955L195.072 156.705C195.618 157.619 196.692 158.455 198.641 158.455ZM198.595 153.659C196.913 153.659 196.05 152.386 196.05 150.568C196.05 148.795 196.891 147.364 198.595 147.364C200.232 147.364 201.095 148.682 201.095 150.568C201.095 152.5 200.209 153.659 198.595 153.659ZM45.4091 167.227C44.9886 165.989 44.0455 165.159 42.3182 165.159C40.4773 165.159 39.1136 166.205 39.1136 167.682C39.1136 168.886 39.8295 169.693 41.4318 170.068L42.8864 170.409C43.767 170.614 44.1818 171.034 44.1818 171.636C44.1818 172.386 43.3864 173 42.1364 173C41.0398 173 40.3523 172.528 40.1136 171.591L38.8409 171.909C39.1534 173.392 40.375 174.182 42.1591 174.182C44.1875 174.182 45.5682 173.074 45.5682 171.568C45.5682 170.352 44.8068 169.585 43.25 169.205L41.9545 168.886C40.9205 168.631 40.4545 168.284 40.4545 167.614C40.4545 166.864 41.25 166.318 42.3182 166.318C43.4886 166.318 43.9716 166.966 44.2045 167.568L45.4091 167.227ZM51.2457 174.182C53.0185 174.182 54.3139 173.295 54.723 171.977L53.4276 171.614C53.0866 172.523 52.2969 172.977 51.2457 172.977C49.6719 172.977 48.5866 171.96 48.5241 170.091H54.8594V169.523C54.8594 166.273 52.9276 165.159 51.1094 165.159C48.7457 165.159 47.1776 167.023 47.1776 169.705C47.1776 172.386 48.723 174.182 51.2457 174.182ZM48.5241 168.932C48.6151 167.574 49.5753 166.364 51.1094 166.364C52.5639 166.364 53.4957 167.455 53.4957 168.932H48.5241ZM56.8991 174H58.2401V168.477C58.2401 167.295 59.1719 166.432 60.4446 166.432C60.8026 166.432 61.1719 166.5 61.2628 166.523V165.159C61.1094 165.148 60.7571 165.136 60.5582 165.136C59.5128 165.136 58.6037 165.727 58.2855 166.591H58.1946V165.273H56.8991V174ZM70.2543 165.273H68.7997L66.3906 172.227H66.2997L63.8906 165.273H62.4361L65.6634 174H67.027L70.2543 165.273ZM72.0241 174H73.3651V165.273H72.0241V174ZM72.706 163.818C73.2287 163.818 73.6605 163.409 73.6605 162.909C73.6605 162.409 73.2287 162 72.706 162C72.1832 162 71.7514 162.409 71.7514 162.909C71.7514 163.409 72.1832 163.818 72.706 163.818ZM79.3665 174.182C81.2983 174.182 82.571 173 82.7983 171.455H81.4574C81.2074 172.409 80.4119 172.977 79.3665 172.977C77.7756 172.977 76.7528 171.659 76.7528 169.636C76.7528 167.659 77.7983 166.364 79.3665 166.364C80.5483 166.364 81.2528 167.091 81.4574 167.886H82.7983C82.571 166.25 81.1847 165.159 79.3438 165.159C76.9801 165.159 75.4119 167.023 75.4119 169.682C75.4119 172.295 76.9119 174.182 79.3665 174.182ZM88.4176 174.182C90.1903 174.182 91.4858 173.295 91.8949 171.977L90.5994 171.614C90.2585 172.523 89.4688 172.977 88.4176 172.977C86.8438 172.977 85.7585 171.96 85.696 170.091H92.0312V169.523C92.0312 166.273 90.0994 165.159 88.2812 165.159C85.9176 165.159 84.3494 167.023 84.3494 169.705C84.3494 172.386 85.8949 174.182 88.4176 174.182ZM85.696 168.932C85.7869 167.574 86.7472 166.364 88.2812 166.364C89.7358 166.364 90.6676 167.455 90.6676 168.932H85.696ZM100.253 167.227C99.8324 165.989 98.8892 165.159 97.1619 165.159C95.321 165.159 93.9574 166.205 93.9574 167.682C93.9574 168.886 94.6733 169.693 96.2756 170.068L97.7301 170.409C98.6108 170.614 99.0256 171.034 99.0256 171.636C99.0256 172.386 98.2301 173 96.9801 173C95.8835 173 95.196 172.528 94.9574 171.591L93.6847 171.909C93.9972 173.392 95.2188 174.182 97.0028 174.182C99.0312 174.182 100.412 173.074 100.412 171.568C100.412 170.352 99.6506 169.585 98.0938 169.205L96.7983 168.886C95.7642 168.631 95.2983 168.284 95.2983 167.614C95.2983 166.864 96.0938 166.318 97.1619 166.318C98.3324 166.318 98.8153 166.966 99.0483 167.568L100.253 167.227Z" fill="#1D1D1F"/>
<path d="M186 216H38V258H186V216Z" fill="#E6F9F0"/>
<path d="M56.7301 241C60.054 241 61.9769 238.939 61.9769 235.529C61.9769 232.136 60.054 230.091 56.842 230.091H53.1985V241H56.7301ZM54.8445 239.562V231.529H56.7408C59.1271 231.529 60.3576 232.957 60.3576 235.529C60.3576 238.113 59.1271 239.562 56.6396 239.562H54.8445ZM63.8959 241H65.4885V232.818H63.8959V241ZM64.7002 231.556C65.2488 231.556 65.7069 231.13 65.7069 230.608C65.7069 230.086 65.2488 229.654 64.7002 229.654C64.1462 229.654 63.6934 230.086 63.6934 230.608C63.6934 231.13 64.1462 231.556 64.7002 231.556ZM73.7623 234.816C73.432 233.543 72.4359 232.712 70.6674 232.712C68.8191 232.712 67.5087 233.686 67.5087 235.135C67.5087 236.297 68.2118 237.069 69.7459 237.41L71.1309 237.713C71.9192 237.889 72.2868 238.241 72.2868 238.752C72.2868 239.386 71.6103 239.881 70.5662 239.881C69.6127 239.881 69.0002 239.471 68.8084 238.667L67.269 238.901C67.5353 240.35 68.7392 241.165 70.5769 241.165C72.5531 241.165 73.9221 240.116 73.9221 238.635C73.9221 237.479 73.187 236.765 71.6848 236.419L70.3851 236.121C69.4849 235.908 69.0961 235.604 69.1014 235.05C69.0961 234.422 69.7779 233.974 70.6834 233.974C71.6742 233.974 72.1323 234.523 72.3187 235.071L73.7623 234.816ZM79.1196 241.165C81.0532 241.165 82.305 240.004 82.4807 238.411H80.9307C80.7282 239.295 80.0411 239.817 79.1302 239.817C77.7826 239.817 76.9143 238.694 76.9143 236.909C76.9143 235.157 77.7986 234.054 79.1302 234.054C80.1423 234.054 80.7602 234.693 80.9307 235.46H82.4807C82.3103 233.809 80.9626 232.712 79.1036 232.712C76.7971 232.712 75.3057 234.448 75.3057 236.946C75.3057 239.413 76.7439 241.165 79.1196 241.165ZM87.6303 241.165C89.9368 241.165 91.4442 239.477 91.4442 236.946C91.4442 234.4 89.9368 232.712 87.6303 232.712C85.3239 232.712 83.8164 234.4 83.8164 236.946C83.8164 239.477 85.3239 241.165 87.6303 241.165ZM87.6357 239.828C86.1282 239.828 85.4251 238.512 85.4251 236.941C85.4251 235.375 86.1282 234.043 87.6357 234.043C89.1325 234.043 89.8356 235.375 89.8356 236.941C89.8356 238.512 89.1325 239.828 87.6357 239.828ZM99.9284 232.818H98.2185L96.1517 239.114H96.0665L93.9944 232.818H92.2845L95.2568 241H96.9614L99.9284 232.818ZM104.658 241.165C106.443 241.165 107.705 240.286 108.068 238.955L106.56 238.683C106.272 239.455 105.58 239.849 104.674 239.849C103.311 239.849 102.395 238.965 102.352 237.388H108.169V236.824C108.169 233.868 106.4 232.712 104.547 232.712C102.267 232.712 100.765 234.448 100.765 236.962C100.765 239.503 102.245 241.165 104.658 241.165ZM102.357 236.195C102.421 235.034 103.263 234.027 104.557 234.027C105.793 234.027 106.603 234.944 106.608 236.195H102.357ZM109.936 241H111.529V236.004C111.529 234.933 112.354 234.161 113.483 234.161C113.814 234.161 114.187 234.219 114.314 234.256V232.733C114.155 232.712 113.84 232.696 113.638 232.696C112.679 232.696 111.859 233.239 111.561 234.118H111.475V232.818H109.936V241ZM128.595 230.091H126.965V238.102H126.864L121.314 230.091H119.79V241H121.436V232.999H121.537L127.083 241H128.595V230.091ZM134.315 241.165C136.621 241.165 138.129 239.477 138.129 236.946C138.129 234.4 136.621 232.712 134.315 232.712C132.008 232.712 130.501 234.4 130.501 236.946C130.501 239.477 132.008 241.165 134.315 241.165ZM134.32 239.828C132.813 239.828 132.11 238.512 132.11 236.941C132.11 235.375 132.813 234.043 134.32 234.043C135.817 234.043 136.52 235.375 136.52 236.941C136.52 238.512 135.817 239.828 134.32 239.828ZM141.431 241H143.051L144.713 235.093H144.835L146.497 241H148.122L150.524 232.818H148.878L147.285 238.8H147.206L145.608 232.818H143.962L142.353 238.827H142.273L140.67 232.818H139.024L141.431 241Z" fill="#06C167"/>
<path d="M168.345 235.911H160.112C160.025 235.911 159.942 235.945 159.881 236.007C159.819 236.068 159.785 236.151 159.785 236.238V237.765C159.785 237.852 159.819 237.935 159.881 237.996C159.942 238.057 160.025 238.092 160.112 238.092H168.345V239.348C168.345 239.477 168.383 239.604 168.455 239.712C168.527 239.82 168.629 239.904 168.749 239.953C168.868 240.003 169 240.016 169.127 239.99C169.254 239.965 169.371 239.903 169.462 239.811L171.809 237.464C171.87 237.403 171.918 237.331 171.951 237.252C171.984 237.172 172.001 237.087 172.001 237.001C172.001 236.915 171.984 236.83 171.951 236.751C171.918 236.672 171.87 236.6 171.809 236.539L169.462 234.191C169.371 234.099 169.254 234.037 169.127 234.011C169 233.986 168.868 233.999 168.749 234.049C168.629 234.098 168.527 234.182 168.455 234.29C168.383 234.398 168.345 234.524 168.345 234.654V235.911Z" fill="#06C167"/>
</svg>
