<svg width="293" height="293" viewBox="0 0 293 293" fill="none" xmlns="http://www.w3.org/2000/svg">
<path d="M292.5 0.5H0V293H292.5V0.5Z" fill="#F3FCF7"/>
<path d="M291.75 1.25H0.75V292.25H291.75V1.25Z" stroke="#06C167" stroke-width="1.5"/>
<path d="M42.5909 45.7273H38.7955L47.1705 69H51.2273L59.6023 45.7273H55.8068L49.3295 64.6818H49.0682L42.5909 45.7273ZM68.4631 69.3523C72.2699 69.3523 74.9631 67.4773 75.7358 64.6364L72.5199 64.0568C71.9062 65.7045 70.429 66.5455 68.4972 66.5455C65.5881 66.5455 63.6335 64.6591 63.5426 61.2955H75.9517V60.0909C75.9517 53.7841 72.179 51.3182 68.2244 51.3182C63.3608 51.3182 60.1562 55.0227 60.1562 60.3864C60.1562 65.8068 63.3153 69.3523 68.4631 69.3523ZM63.554 58.75C63.6903 56.2727 65.4858 54.125 68.2472 54.125C70.8835 54.125 72.6108 56.0795 72.6222 58.75H63.554ZM87.0398 75.9091C91.483 75.9091 94.9148 73.875 94.9148 69.3864V51.5455H91.5852V54.375H91.3352C90.733 53.2955 89.5284 51.3182 86.2784 51.3182C82.0625 51.3182 78.9602 54.6477 78.9602 60.2045C78.9602 65.7727 82.1307 68.7386 86.2557 68.7386C89.4602 68.7386 90.6989 66.9318 91.3125 65.8182H91.5284V69.25C91.5284 71.9886 89.6534 73.1705 87.0739 73.1705C84.2443 73.1705 83.142 71.75 82.5398 70.75L79.6193 71.9545C80.5398 74.0909 82.8693 75.9091 87.0398 75.9091ZM87.0057 65.9205C83.9716 65.9205 82.392 63.5909 82.392 60.1591C82.392 56.8068 83.9375 54.2045 87.0057 54.2045C89.9716 54.2045 91.5625 56.625 91.5625 60.1591C91.5625 63.7614 89.9375 65.9205 87.0057 65.9205ZM106.79 75.9091C111.233 75.9091 114.665 73.875 114.665 69.3864V51.5455H111.335V54.375H111.085C110.483 53.2955 109.278 51.3182 106.028 51.3182C101.812 51.3182 98.7102 54.6477 98.7102 60.2045C98.7102 65.7727 101.881 68.7386 106.006 68.7386C109.21 68.7386 110.449 66.9318 111.062 65.8182H111.278V69.25C111.278 71.9886 109.403 73.1705 106.824 73.1705C103.994 73.1705 102.892 71.75 102.29 70.75L99.3693 71.9545C100.29 74.0909 102.619 75.9091 106.79 75.9091ZM106.756 65.9205C103.722 65.9205 102.142 63.5909 102.142 60.1591C102.142 56.8068 103.688 54.2045 106.756 54.2045C109.722 54.2045 111.312 56.625 111.312 60.1591C111.312 63.7614 109.688 65.9205 106.756 65.9205ZM119.222 69H122.619V51.5455H119.222V69ZM120.938 48.8523C122.108 48.8523 123.085 47.9432 123.085 46.8295C123.085 45.7159 122.108 44.7955 120.938 44.7955C119.756 44.7955 118.79 45.7159 118.79 46.8295C118.79 47.9432 119.756 48.8523 120.938 48.8523ZM134.713 69.3523C138.52 69.3523 141.213 67.4773 141.986 64.6364L138.77 64.0568C138.156 65.7045 136.679 66.5455 134.747 66.5455C131.838 66.5455 129.884 64.6591 129.793 61.2955H142.202V60.0909C142.202 53.7841 138.429 51.3182 134.474 51.3182C129.611 51.3182 126.406 55.0227 126.406 60.3864C126.406 65.8068 129.565 69.3523 134.713 69.3523ZM129.804 58.75C129.94 56.2727 131.736 54.125 134.497 54.125C137.134 54.125 138.861 56.0795 138.872 58.75H129.804ZM154.713 69H158.224V58.8523H168.111V55.8409H158.224V48.75H169.145V45.7273H154.713V69ZM179.261 69.3523C184.182 69.3523 187.398 65.75 187.398 60.3523C187.398 54.9205 184.182 51.3182 179.261 51.3182C174.341 51.3182 171.125 54.9205 171.125 60.3523C171.125 65.75 174.341 69.3523 179.261 69.3523ZM179.273 66.5C176.057 66.5 174.557 63.6932 174.557 60.3409C174.557 57 176.057 54.1591 179.273 54.1591C182.466 54.1591 183.966 57 183.966 60.3409C183.966 63.6932 182.466 66.5 179.273 66.5ZM198.543 69.3523C203.463 69.3523 206.679 65.75 206.679 60.3523C206.679 54.9205 203.463 51.3182 198.543 51.3182C193.622 51.3182 190.406 54.9205 190.406 60.3523C190.406 65.75 193.622 69.3523 198.543 69.3523ZM198.554 66.5C195.338 66.5 193.838 63.6932 193.838 60.3409C193.838 57 195.338 54.1591 198.554 54.1591C201.747 54.1591 203.247 57 203.247 60.3409C203.247 63.6932 201.747 66.5 198.554 66.5ZM217.006 69.3409C220.188 69.3409 221.438 67.3977 222.051 66.2841H222.335V69H225.653V45.7273H222.256V54.375H222.051C221.438 53.2955 220.278 51.3182 217.028 51.3182C212.812 51.3182 209.71 54.6477 209.71 60.3068C209.71 65.9545 212.767 69.3409 217.006 69.3409ZM217.756 66.4432C214.722 66.4432 213.142 63.7727 213.142 60.2727C213.142 56.8068 214.688 54.2045 217.756 54.2045C220.722 54.2045 222.312 56.625 222.312 60.2727C222.312 63.9432 220.688 66.4432 217.756 66.4432ZM56.3068 92.0795H59.9091C59.125 87.5455 55.25 84.4091 50.2273 84.4091C44.2045 84.4091 39.8068 88.9432 39.8068 96.375C39.8068 103.739 44.0795 108.318 50.3864 108.318C56.0341 108.318 60.0682 104.614 60.0682 98.7386V96.0909H50.9205V98.9886H56.6705C56.5909 102.739 54.1136 105.114 50.3864 105.114C46.2841 105.114 43.2955 102.011 43.2955 96.3523C43.2955 90.7159 46.3068 87.6136 50.25 87.6136C53.3409 87.6136 55.4318 89.3182 56.3068 92.0795ZM64.2528 108H67.6506V97.3409C67.6506 95.0568 69.4119 93.4091 71.821 93.4091C72.5256 93.4091 73.321 93.5341 73.5938 93.6136V90.3636C73.2528 90.3182 72.5824 90.2841 72.1506 90.2841C70.1051 90.2841 68.3551 91.4432 67.7188 93.3182H67.5369V90.5455H64.2528V108ZM83.2614 108.352C88.1818 108.352 91.3977 104.75 91.3977 99.3523C91.3977 93.9205 88.1818 90.3182 83.2614 90.3182C78.3409 90.3182 75.125 93.9205 75.125 99.3523C75.125 104.75 78.3409 108.352 83.2614 108.352ZM83.2727 105.5C80.0568 105.5 78.5568 102.693 78.5568 99.3409C78.5568 96 80.0568 93.1591 83.2727 93.1591C86.4659 93.1591 87.9659 96 87.9659 99.3409C87.9659 102.693 86.4659 105.5 83.2727 105.5ZM102.543 108.352C107.463 108.352 110.679 104.75 110.679 99.3523C110.679 93.9205 107.463 90.3182 102.543 90.3182C97.6222 90.3182 94.4062 93.9205 94.4062 99.3523C94.4062 104.75 97.6222 108.352 102.543 108.352ZM102.554 105.5C99.3381 105.5 97.8381 102.693 97.8381 99.3409C97.8381 96 99.3381 93.1591 102.554 93.1591C105.747 93.1591 107.247 96 107.247 99.3409C107.247 102.693 105.747 105.5 102.554 105.5ZM128.778 90.5455H125.131L120.722 103.977H120.54L116.119 90.5455H112.472L118.812 108H122.449L128.778 90.5455ZM138.869 108.352C142.676 108.352 145.369 106.477 146.142 103.636L142.926 103.057C142.312 104.705 140.835 105.545 138.903 105.545C135.994 105.545 134.04 103.659 133.949 100.295H146.358V99.0909C146.358 92.7841 142.585 90.3182 138.631 90.3182C133.767 90.3182 130.562 94.0227 130.562 99.3864C130.562 104.807 133.722 108.352 138.869 108.352ZM133.96 97.75C134.097 95.2727 135.892 93.125 138.653 93.125C141.29 93.125 143.017 95.0795 143.028 97.75H133.96Z" fill="#1D1D1F"/>
<path d="M41.5227 156H42.9773L45.5455 146.727H45.6364L48.2045 156H49.6591L52.8409 144.364H51.4091L48.9773 153.841H48.8636L46.3864 144.364H44.7955L42.3182 153.841H42.2045L39.7727 144.364H38.3409L41.5227 156ZM57.2614 156.182C59.0341 156.182 60.3295 155.295 60.7386 153.977L59.4432 153.614C59.1023 154.523 58.3125 154.977 57.2614 154.977C55.6875 154.977 54.6023 153.96 54.5398 152.091H60.875V151.523C60.875 148.273 58.9432 147.159 57.125 147.159C54.7614 147.159 53.1932 149.023 53.1932 151.705C53.1932 154.386 54.7386 156.182 57.2614 156.182ZM54.5398 150.932C54.6307 149.574 55.5909 148.364 57.125 148.364C58.5795 148.364 59.5114 149.455 59.5114 150.932H54.5398ZM70.9602 156.182C73.3239 156.182 74.9148 154.386 74.9148 151.682C74.9148 148.955 73.3239 147.159 70.9602 147.159C68.5966 147.159 67.0057 148.955 67.0057 151.682C67.0057 154.386 68.5966 156.182 70.9602 156.182ZM70.9602 154.977C69.1648 154.977 68.3466 153.432 68.3466 151.682C68.3466 149.932 69.1648 148.364 70.9602 148.364C72.7557 148.364 73.5739 149.932 73.5739 151.682C73.5739 153.432 72.7557 154.977 70.9602 154.977ZM80.848 147.273H78.8935V146.386C78.8935 145.523 79.2571 145.068 80.1435 145.068C80.5298 145.068 80.7571 145.159 80.8935 145.205L81.2798 144.045C81.0753 143.955 80.6662 143.818 80.0071 143.818C78.7571 143.818 77.5526 144.568 77.5526 146.068V147.273H76.1435V148.409H77.5526V156H78.8935V148.409H80.848V147.273ZM86.6136 147.273H84.6591V146.386C84.6591 145.523 85.0227 145.068 85.9091 145.068C86.2955 145.068 86.5227 145.159 86.6591 145.205L87.0455 144.045C86.8409 143.955 86.4318 143.818 85.7727 143.818C84.5227 143.818 83.3182 144.568 83.3182 146.068V147.273H81.9091V148.409H83.3182V156H84.6591V148.409H86.6136V147.273ZM91.7926 156.182C93.5653 156.182 94.8608 155.295 95.2699 153.977L93.9744 153.614C93.6335 154.523 92.8438 154.977 91.7926 154.977C90.2188 154.977 89.1335 153.96 89.071 152.091H95.4062V151.523C95.4062 148.273 93.4744 147.159 91.6562 147.159C89.2926 147.159 87.7244 149.023 87.7244 151.705C87.7244 154.386 89.2699 156.182 91.7926 156.182ZM89.071 150.932C89.1619 149.574 90.1222 148.364 91.6562 148.364C93.1108 148.364 94.0426 149.455 94.0426 150.932H89.071ZM97.446 156H98.7869V150.477C98.7869 149.295 99.7188 148.432 100.991 148.432C101.349 148.432 101.719 148.5 101.81 148.523V147.159C101.656 147.148 101.304 147.136 101.105 147.136C100.06 147.136 99.1506 147.727 98.8324 148.591H98.7415V147.273H97.446V156ZM111.695 147.273H109.831V145.182H108.49V147.273H107.172V148.409H108.49V153.864C108.49 155.386 109.717 156.114 110.854 156.114C111.354 156.114 111.672 156.023 111.854 155.955L111.581 154.75C111.467 154.773 111.286 154.818 110.99 154.818C110.399 154.818 109.831 154.636 109.831 153.5V148.409H111.695V147.273ZM115.24 150.75C115.24 149.227 116.212 148.364 117.536 148.364C118.797 148.364 119.558 149.159 119.558 150.545V156H120.899V150.455C120.899 148.21 119.706 147.159 117.922 147.159C116.547 147.159 115.763 147.733 115.354 148.636H115.24V144.364H113.899V156H115.24V150.75ZM127.011 156.182C128.784 156.182 130.08 155.295 130.489 153.977L129.193 153.614C128.852 154.523 128.062 154.977 127.011 154.977C125.438 154.977 124.352 153.96 124.29 152.091H130.625V151.523C130.625 148.273 128.693 147.159 126.875 147.159C124.511 147.159 122.943 149.023 122.943 151.705C122.943 154.386 124.489 156.182 127.011 156.182ZM124.29 150.932C124.381 149.574 125.341 148.364 126.875 148.364C128.33 148.364 129.261 149.455 129.261 150.932H124.29ZM141.051 147.273H139.097V146.386C139.097 145.523 139.46 145.068 140.347 145.068C140.733 145.068 140.96 145.159 141.097 145.205L141.483 144.045C141.278 143.955 140.869 143.818 140.21 143.818C138.96 143.818 137.756 144.568 137.756 146.068V147.273H136.347V148.409H137.756V156H139.097V148.409H141.051V147.273ZM146.116 156.182C148.48 156.182 150.071 154.386 150.071 151.682C150.071 148.955 148.48 147.159 146.116 147.159C143.753 147.159 142.162 148.955 142.162 151.682C142.162 154.386 143.753 156.182 146.116 156.182ZM146.116 154.977C144.321 154.977 143.503 153.432 143.503 151.682C143.503 149.932 144.321 148.364 146.116 148.364C147.912 148.364 148.73 149.932 148.73 151.682C148.73 153.432 147.912 154.977 146.116 154.977ZM153.459 144.364H152.118V156H153.459V144.364ZM157.256 144.364H155.915V156H157.256V144.364ZM163.257 156.182C165.621 156.182 167.212 154.386 167.212 151.682C167.212 148.955 165.621 147.159 163.257 147.159C160.893 147.159 159.303 148.955 159.303 151.682C159.303 154.386 160.893 156.182 163.257 156.182ZM163.257 154.977C161.462 154.977 160.643 153.432 160.643 151.682C160.643 149.932 161.462 148.364 163.257 148.364C165.053 148.364 165.871 149.932 165.871 151.682C165.871 153.432 165.053 154.977 163.257 154.977ZM170.939 156H172.257L174.166 149.295H174.303L176.212 156H177.53L180.189 147.273H178.78L176.893 153.932H176.803L174.962 147.273H173.53L171.666 153.955H171.575L169.689 147.273H168.28L170.939 156ZM181.962 156H183.303V147.273H181.962V156ZM182.643 145.818C183.166 145.818 183.598 145.409 183.598 144.909C183.598 144.409 183.166 144 182.643 144C182.121 144 181.689 144.409 181.689 144.909C181.689 145.409 182.121 145.818 182.643 145.818ZM187.099 150.75C187.099 149.227 188.043 148.364 189.327 148.364C190.571 148.364 191.327 149.176 191.327 150.545V156H192.668V150.455C192.668 148.227 191.48 147.159 189.713 147.159C188.395 147.159 187.577 147.75 187.168 148.636H187.054V147.273H185.759V156H187.099V150.75ZM198.641 159.455C200.732 159.455 202.413 158.5 202.413 156.25V147.273H201.118V148.659H200.982C200.686 148.205 200.141 147.159 198.436 147.159C196.232 147.159 194.709 148.909 194.709 151.591C194.709 154.318 196.3 155.864 198.413 155.864C200.118 155.864 200.663 154.864 200.959 154.386H201.072V156.159C201.072 157.614 200.05 158.273 198.641 158.273C197.055 158.273 196.499 157.438 196.141 156.955L195.072 157.705C195.618 158.619 196.692 159.455 198.641 159.455ZM198.595 154.659C196.913 154.659 196.05 153.386 196.05 151.568C196.05 149.795 196.891 148.364 198.595 148.364C200.232 148.364 201.095 149.682 201.095 151.568C201.095 153.5 200.209 154.659 198.595 154.659ZM45.4091 168.227C44.9886 166.989 44.0455 166.159 42.3182 166.159C40.4773 166.159 39.1136 167.205 39.1136 168.682C39.1136 169.886 39.8295 170.693 41.4318 171.068L42.8864 171.409C43.767 171.614 44.1818 172.034 44.1818 172.636C44.1818 173.386 43.3864 174 42.1364 174C41.0398 174 40.3523 173.528 40.1136 172.591L38.8409 172.909C39.1534 174.392 40.375 175.182 42.1591 175.182C44.1875 175.182 45.5682 174.074 45.5682 172.568C45.5682 171.352 44.8068 170.585 43.25 170.205L41.9545 169.886C40.9205 169.631 40.4545 169.284 40.4545 168.614C40.4545 167.864 41.25 167.318 42.3182 167.318C43.4886 167.318 43.9716 167.966 44.2045 168.568L45.4091 168.227ZM51.2457 175.182C53.0185 175.182 54.3139 174.295 54.723 172.977L53.4276 172.614C53.0866 173.523 52.2969 173.977 51.2457 173.977C49.6719 173.977 48.5866 172.96 48.5241 171.091H54.8594V170.523C54.8594 167.273 52.9276 166.159 51.1094 166.159C48.7457 166.159 47.1776 168.023 47.1776 170.705C47.1776 173.386 48.723 175.182 51.2457 175.182ZM48.5241 169.932C48.6151 168.574 49.5753 167.364 51.1094 167.364C52.5639 167.364 53.4957 168.455 53.4957 169.932H48.5241ZM56.8991 175H58.2401V169.477C58.2401 168.295 59.1719 167.432 60.4446 167.432C60.8026 167.432 61.1719 167.5 61.2628 167.523V166.159C61.1094 166.148 60.7571 166.136 60.5582 166.136C59.5128 166.136 58.6037 166.727 58.2855 167.591H58.1946V166.273H56.8991V175ZM70.2543 166.273H68.7997L66.3906 173.227H66.2997L63.8906 166.273H62.4361L65.6634 175H67.027L70.2543 166.273ZM72.0241 175H73.3651V166.273H72.0241V175ZM72.706 164.818C73.2287 164.818 73.6605 164.409 73.6605 163.909C73.6605 163.409 73.2287 163 72.706 163C72.1832 163 71.7514 163.409 71.7514 163.909C71.7514 164.409 72.1832 164.818 72.706 164.818ZM79.3665 175.182C81.2983 175.182 82.571 174 82.7983 172.455H81.4574C81.2074 173.409 80.4119 173.977 79.3665 173.977C77.7756 173.977 76.7528 172.659 76.7528 170.636C76.7528 168.659 77.7983 167.364 79.3665 167.364C80.5483 167.364 81.2528 168.091 81.4574 168.886H82.7983C82.571 167.25 81.1847 166.159 79.3438 166.159C76.9801 166.159 75.4119 168.023 75.4119 170.682C75.4119 173.295 76.9119 175.182 79.3665 175.182ZM88.4176 175.182C90.1903 175.182 91.4858 174.295 91.8949 172.977L90.5994 172.614C90.2585 173.523 89.4688 173.977 88.4176 173.977C86.8438 173.977 85.7585 172.96 85.696 171.091H92.0312V170.523C92.0312 167.273 90.0994 166.159 88.2812 166.159C85.9176 166.159 84.3494 168.023 84.3494 170.705C84.3494 173.386 85.8949 175.182 88.4176 175.182ZM85.696 169.932C85.7869 168.574 86.7472 167.364 88.2812 167.364C89.7358 167.364 90.6676 168.455 90.6676 169.932H85.696ZM100.253 168.227C99.8324 166.989 98.8892 166.159 97.1619 166.159C95.321 166.159 93.9574 167.205 93.9574 168.682C93.9574 169.886 94.6733 170.693 96.2756 171.068L97.7301 171.409C98.6108 171.614 99.0256 172.034 99.0256 172.636C99.0256 173.386 98.2301 174 96.9801 174C95.8835 174 95.196 173.528 94.9574 172.591L93.6847 172.909C93.9972 174.392 95.2188 175.182 97.0028 175.182C99.0312 175.182 100.412 174.074 100.412 172.568C100.412 171.352 99.6506 170.585 98.0938 170.205L96.7983 169.886C95.7642 169.631 95.2983 169.284 95.2983 168.614C95.2983 167.864 96.0938 167.318 97.1619 167.318C98.3324 167.318 98.8153 167.966 99.0483 168.568L100.253 168.227Z" fill="#1D1D1F"/>
<path d="M185.5 216.5H37.5V258.5H185.5V216.5Z" fill="#E6F9F0"/>
<path d="M56.2301 241.5C59.554 241.5 61.4769 239.439 61.4769 236.029C61.4769 232.636 59.554 230.591 56.342 230.591H52.6985V241.5H56.2301ZM54.3445 240.062V232.029H56.2408C58.6271 232.029 59.8576 233.457 59.8576 236.029C59.8576 238.613 58.6271 240.062 56.1396 240.062H54.3445ZM63.3959 241.5H64.9885V233.318H63.3959V241.5ZM64.2002 232.056C64.7488 232.056 65.2069 231.63 65.2069 231.108C65.2069 230.586 64.7488 230.154 64.2002 230.154C63.6462 230.154 63.1934 230.586 63.1934 231.108C63.1934 231.63 63.6462 232.056 64.2002 232.056ZM73.2623 235.316C72.932 234.043 71.9359 233.212 70.1674 233.212C68.3191 233.212 67.0087 234.186 67.0087 235.635C67.0087 236.797 67.7118 237.569 69.2459 237.91L70.6309 238.213C71.4192 238.389 71.7868 238.741 71.7868 239.252C71.7868 239.886 71.1103 240.381 70.0662 240.381C69.1127 240.381 68.5002 239.971 68.3084 239.167L66.769 239.401C67.0353 240.85 68.2392 241.665 70.0769 241.665C72.0531 241.665 73.4221 240.616 73.4221 239.135C73.4221 237.979 72.687 237.265 71.1848 236.919L69.8851 236.621C68.9849 236.408 68.5961 236.104 68.6014 235.55C68.5961 234.922 69.2779 234.474 70.1834 234.474C71.1742 234.474 71.6323 235.023 71.8187 235.571L73.2623 235.316ZM78.6196 241.665C80.5532 241.665 81.805 240.504 81.9807 238.911H80.4307C80.2282 239.795 79.5411 240.317 78.6302 240.317C77.2826 240.317 76.4143 239.194 76.4143 237.409C76.4143 235.657 77.2986 234.554 78.6302 234.554C79.6423 234.554 80.2602 235.193 80.4307 235.96H81.9807C81.8103 234.309 80.4626 233.212 78.6036 233.212C76.2971 233.212 74.8057 234.948 74.8057 237.446C74.8057 239.913 76.2439 241.665 78.6196 241.665ZM87.1303 241.665C89.4368 241.665 90.9442 239.977 90.9442 237.446C90.9442 234.9 89.4368 233.212 87.1303 233.212C84.8239 233.212 83.3164 234.9 83.3164 237.446C83.3164 239.977 84.8239 241.665 87.1303 241.665ZM87.1357 240.328C85.6282 240.328 84.9251 239.012 84.9251 237.441C84.9251 235.875 85.6282 234.543 87.1357 234.543C88.6325 234.543 89.3356 235.875 89.3356 237.441C89.3356 239.012 88.6325 240.328 87.1357 240.328ZM99.4284 233.318H97.7185L95.6517 239.614H95.5665L93.4944 233.318H91.7845L94.7568 241.5H96.4614L99.4284 233.318ZM104.158 241.665C105.943 241.665 107.205 240.786 107.568 239.455L106.06 239.183C105.772 239.955 105.08 240.349 104.174 240.349C102.811 240.349 101.895 239.465 101.852 237.888H107.669V237.324C107.669 234.368 105.9 233.212 104.047 233.212C101.767 233.212 100.265 234.948 100.265 237.462C100.265 240.003 101.745 241.665 104.158 241.665ZM101.857 236.695C101.921 235.534 102.763 234.527 104.057 234.527C105.293 234.527 106.103 235.444 106.108 236.695H101.857ZM109.436 241.5H111.029V236.504C111.029 235.433 111.854 234.661 112.983 234.661C113.314 234.661 113.687 234.719 113.814 234.756V233.233C113.655 233.212 113.34 233.196 113.138 233.196C112.179 233.196 111.359 233.739 111.061 234.618H110.975V233.318H109.436V241.5ZM128.095 230.591H126.465V238.602H126.364L120.814 230.591H119.29V241.5H120.936V233.499H121.037L126.583 241.5H128.095V230.591ZM133.815 241.665C136.121 241.665 137.629 239.977 137.629 237.446C137.629 234.9 136.121 233.212 133.815 233.212C131.508 233.212 130.001 234.9 130.001 237.446C130.001 239.977 131.508 241.665 133.815 241.665ZM133.82 240.328C132.313 240.328 131.61 239.012 131.61 237.441C131.61 235.875 132.313 234.543 133.82 234.543C135.317 234.543 136.02 235.875 136.02 237.441C136.02 239.012 135.317 240.328 133.82 240.328ZM140.931 241.5H142.551L144.213 235.593H144.335L145.997 241.5H147.622L150.024 233.318H148.378L146.785 239.3H146.706L145.108 233.318H143.462L141.853 239.327H141.773L140.17 233.318H138.524L140.931 241.5Z" fill="#06C167"/>
<path d="M167.845 236.411H159.612C159.525 236.411 159.442 236.445 159.381 236.507C159.319 236.568 159.285 236.651 159.285 236.738V238.265C159.285 238.352 159.319 238.435 159.381 238.496C159.442 238.557 159.525 238.592 159.612 238.592H167.845V239.848C167.845 239.977 167.883 240.104 167.955 240.212C168.027 240.32 168.129 240.404 168.249 240.453C168.368 240.503 168.5 240.516 168.627 240.49C168.754 240.465 168.871 240.403 168.962 240.311L171.309 237.964C171.37 237.903 171.418 237.831 171.451 237.752C171.484 237.672 171.501 237.587 171.501 237.501C171.501 237.415 171.484 237.33 171.451 237.251C171.418 237.172 171.37 237.1 171.309 237.039L168.962 234.691C168.871 234.599 168.754 234.537 168.627 234.511C168.5 234.486 168.368 234.499 168.249 234.549C168.129 234.598 168.027 234.682 167.955 234.79C167.883 234.898 167.845 235.024 167.845 235.154V236.411Z" fill="#06C167"/>
</svg>
